<?xml version="1.0" encoding="UTF-8" standalone="no"?>
<!DOCTYPE svg PUBLIC "-//W3C//DTD SVG 1.1//EN"
 "http://www.w3.org/Graphics/SVG/1.1/DTD/svg11.dtd">
<!-- Generated by graphviz version 7.0.0 (20221023.0053)
 -->
<!-- Title: classes Pages: 1 -->
<svg width="1692pt" height="229pt"
 viewBox="0.00 0.00 1692.00 229.00" xmlns="http://www.w3.org/2000/svg" xmlns:xlink="http://www.w3.org/1999/xlink">
<g id="graph0" class="graph" transform="scale(1 1) rotate(0) translate(4 225)">
<title>classes</title>
<polygon fill="white" stroke="none" points="-4,4 -4,-225 1688,-225 1688,4 -4,4"/>
<!-- pman.cli.CLIApp -->
<g id="node1" class="node">
<title>pman.cli.CLIApp</title>
<polygon fill="none" stroke="black" points="0,-151.5 0,-220.5 95,-220.5 95,-151.5 0,-151.5"/>
<text text-anchor="middle" x="47.5" y="-205.3" font-family="Times,serif" font-size="14.00">CLIApp</text>
<polyline fill="none" stroke="black" points="0,-197.5 95,-197.5"/>
<text text-anchor="start" x="8" y="-182.3" font-family="Times,serif" font-size="14.00">exit_code : int</text>
<polyline fill="none" stroke="black" points="0,-174.5 95,-174.5"/>
<text text-anchor="middle" x="47.5" y="-159.3" font-family="Times,serif" font-size="14.00"> </text>
</g>
<!-- pman.cli.CLIAppTest -->
<g id="node2" class="node">
<title>pman.cli.CLIAppTest</title>
<polygon fill="none" stroke="black" points="5,-22.5 5,-92.5 90,-92.5 90,-22.5 5,-22.5"/>
<text text-anchor="middle" x="47.5" y="-77.3" font-family="Times,serif" font-size="14.00">CLIAppTest</text>
<polyline fill="none" stroke="black" points="5,-69.5 90,-69.5"/>
<polyline fill="none" stroke="black" points="5,-45.5 90,-45.5"/>
<text text-anchor="middle" x="47.5" y="-30.3" font-family="Times,serif" font-size="14.00"> </text>
</g>
<!-- pman.cli.CLIAppTest&#45;&gt;pman.cli.CLIApp -->
<g id="edge1" class="edge">
<title>pman.cli.CLIAppTest&#45;&gt;pman.cli.CLIApp</title>
<path fill="none" stroke="black" d="M47.5,-92.4C47.5,-107.24 47.5,-124.85 47.5,-140.71"/>
<polygon fill="none" stroke="black" points="44,-140.37 47.5,-150.37 51,-140.37 44,-140.37"/>
</g>
<!-- pman.core.exceptions.CLIError -->
<g id="node3" class="node">
<title>pman.core.exceptions.CLIError</title>
<polygon fill="none" stroke="black" points="108,-22.5 108,-92.5 175,-92.5 175,-22.5 108,-22.5"/>
<text text-anchor="middle" x="141.5" y="-77.3" font-family="Times,serif" font-size="14.00" fill="red">CLIError</text>
<polyline fill="none" stroke="black" points="108,-69.5 175,-69.5"/>
<polyline fill="none" stroke="black" points="108,-45.5 175,-45.5"/>
<text text-anchor="middle" x="141.5" y="-30.3" font-family="Times,serif" font-size="14.00" fill="red"> </text>
</g>
<!-- pman.settings.Settings.Config -->
<g id="node4" class="node">
<title>pman.settings.Settings.Config</title>
<polygon fill="none" stroke="black" points="193,-15.5 193,-99.5 322,-99.5 322,-15.5 193,-15.5"/>
<text text-anchor="middle" x="257.5" y="-84.3" font-family="Times,serif" font-size="14.00">Config</text>
<polyline fill="none" stroke="black" points="193,-76.5 322,-76.5"/>
<text text-anchor="start" x="201" y="-61.3" font-family="Times,serif" font-size="14.00">case_sensitive : bool</text>
<text text-anchor="start" x="201" y="-46.3" font-family="Times,serif" font-size="14.00">env_prefix : str</text>
<polyline fill="none" stroke="black" points="193,-38.5 322,-38.5"/>
<text text-anchor="middle" x="257.5" y="-23.3" font-family="Times,serif" font-size="14.00"> </text>
</g>
<!-- pman.man.CustomHeading -->
<g id="node5" class="node">
<title>pman.man.CustomHeading</title>
<polygon fill="none" stroke="black" points="340,-22.5 340,-92.5 445,-92.5 445,-22.5 340,-22.5"/>
<text text-anchor="middle" x="392.5" y="-77.3" font-family="Times,serif" font-size="14.00">CustomHeading</text>
<polyline fill="none" stroke="black" points="340,-69.5 445,-69.5"/>
<polyline fill="none" stroke="black" points="340,-45.5 445,-45.5"/>
<text text-anchor="middle" x="392.5" y="-30.3" font-family="Times,serif" font-size="14.00"> </text>
</g>
<!-- pman.man.CustomMarkdown -->
<g id="node6" class="node">
<title>pman.man.CustomMarkdown</title>
<polygon fill="none" stroke="black" points="463,-22.5 463,-92.5 582,-92.5 582,-22.5 463,-22.5"/>
<text text-anchor="middle" x="522.5" y="-77.3" font-family="Times,serif" font-size="14.00">CustomMarkdown</text>
<polyline fill="none" stroke="black" points="463,-69.5 582,-69.5"/>
<polyline fill="none" stroke="black" points="463,-45.5 582,-45.5"/>
<text text-anchor="middle" x="522.5" y="-30.3" font-family="Times,serif" font-size="14.00"> </text>
</g>
<!-- pman.controllers.man_controller.ManController -->
<g id="node7" class="node">
<title>pman.controllers.man_controller.ManController</title>
<polygon fill="none" stroke="black" points="600.5,-22.5 600.5,-92.5 698.5,-92.5 698.5,-22.5 600.5,-22.5"/>
<text text-anchor="middle" x="649.5" y="-77.3" font-family="Times,serif" font-size="14.00">ManController</text>
<polyline fill="none" stroke="black" points="600.5,-69.5 698.5,-69.5"/>
<polyline fill="none" stroke="black" points="600.5,-45.5 698.5,-45.5"/>
<text text-anchor="start" x="608.5" y="-30.3" font-family="Times,serif" font-size="14.00">man(): None</text>
</g>
<!-- pman.cli.CLIApp.Meta -->
<g id="node8" class="node">
<title>pman.cli.CLIApp.Meta</title>
<polygon fill="none" stroke="black" points="717,-0.5 717,-114.5 848,-114.5 848,-0.5 717,-0.5"/>
<text text-anchor="middle" x="782.5" y="-99.3" font-family="Times,serif" font-size="14.00">Meta</text>
<polyline fill="none" stroke="black" points="717,-91.5 848,-91.5"/>
<text text-anchor="start" x="725" y="-76.3" font-family="Times,serif" font-size="14.00">config_defaults : dict</text>
<text text-anchor="start" x="725" y="-61.3" font-family="Times,serif" font-size="14.00">exit_on_close : bool</text>
<text text-anchor="start" x="725" y="-46.3" font-family="Times,serif" font-size="14.00">handlers : list</text>
<text text-anchor="start" x="725" y="-31.3" font-family="Times,serif" font-size="14.00">label : str</text>
<polyline fill="none" stroke="black" points="717,-23.5 848,-23.5"/>
<text text-anchor="middle" x="782.5" y="-8.3" font-family="Times,serif" font-size="14.00"> </text>
</g>
<!-- pman.cli.CLIAppTest.Meta -->
<g id="node9" class="node">
<title>pman.cli.CLIAppTest.Meta</title>
<polygon fill="none" stroke="black" points="866.5,-23 866.5,-92 934.5,-92 934.5,-23 866.5,-23"/>
<text text-anchor="middle" x="900.5" y="-76.8" font-family="Times,serif" font-size="14.00">Meta</text>
<polyline fill="none" stroke="black" points="866.5,-69 934.5,-69"/>
<text text-anchor="start" x="874.5" y="-53.8" font-family="Times,serif" font-size="14.00">label : str</text>
<polyline fill="none" stroke="black" points="866.5,-46 934.5,-46"/>
<text text-anchor="middle" x="900.5" y="-30.8" font-family="Times,serif" font-size="14.00"> </text>
</g>
<!-- pman.controllers.man_controller.ManController.Meta -->
<g id="node10" class="node">
<title>pman.controllers.man_controller.ManController.Meta</title>
<polygon fill="none" stroke="black" points="953,-15.5 953,-99.5 1054,-99.5 1054,-15.5 953,-15.5"/>
<text text-anchor="middle" x="1003.5" y="-84.3" font-family="Times,serif" font-size="14.00">Meta</text>
<polyline fill="none" stroke="black" points="953,-76.5 1054,-76.5"/>
<text text-anchor="start" x="961" y="-61.3" font-family="Times,serif" font-size="14.00">arguments : list</text>
<text text-anchor="start" x="961" y="-46.3" font-family="Times,serif" font-size="14.00">label : str</text>
<polyline fill="none" stroke="black" points="953,-38.5 1054,-38.5"/>
<text text-anchor="middle" x="1003.5" y="-23.3" font-family="Times,serif" font-size="14.00"> </text>
</g>
<!-- pman.controllers.search_controller.SearchController.Meta -->
<g id="node11" class="node">
<title>pman.controllers.search_controller.SearchController.Meta</title>
<polygon fill="none" stroke="black" points="1072,-15.5 1072,-99.5 1173,-99.5 1173,-15.5 1072,-15.5"/>
<text text-anchor="middle" x="1122.5" y="-84.3" font-family="Times,serif" font-size="14.00">Meta</text>
<polyline fill="none" stroke="black" points="1072,-76.5 1173,-76.5"/>
<text text-anchor="start" x="1080" y="-61.3" font-family="Times,serif" font-size="14.00">arguments : list</text>
<text text-anchor="start" x="1080" y="-46.3" font-family="Times,serif" font-size="14.00">label : str</text>
<polyline fill="none" stroke="black" points="1072,-38.5 1173,-38.5"/>
<text text-anchor="middle" x="1122.5" y="-23.3" font-family="Times,serif" font-size="14.00"> </text>
</g>
<!-- pman.core.exceptions.NoManpageMatch -->
<g id="node12" class="node">
<title>pman.core.exceptions.NoManpageMatch</title>
<polygon fill="none" stroke="black" points="1191,-22.5 1191,-92.5 1310,-92.5 1310,-22.5 1191,-22.5"/>
<text text-anchor="middle" x="1250.5" y="-77.3" font-family="Times,serif" font-size="14.00" fill="red">NoManpageMatch</text>
<polyline fill="none" stroke="black" points="1191,-69.5 1310,-69.5"/>
<polyline fill="none" stroke="black" points="1191,-45.5 1310,-45.5"/>
<text text-anchor="middle" x="1250.5" y="-30.3" font-family="Times,serif" font-size="14.00" fill="red"> </text>
</g>
<!-- pman.controllers.search_controller.SearchController -->
<g id="node13" class="node">
<title>pman.controllers.search_controller.SearchController</title>
<polygon fill="none" stroke="black" points="1328,-22.5 1328,-92.5 1437,-92.5 1437,-22.5 1328,-22.5"/>
<text text-anchor="middle" x="1382.5" y="-77.3" font-family="Times,serif" font-size="14.00">SearchController</text>
<polyline fill="none" stroke="black" points="1328,-69.5 1437,-69.5"/>
<polyline fill="none" stroke="black" points="1328,-45.5 1437,-45.5"/>
<text text-anchor="start" x="1336" y="-30.3" font-family="Times,serif" font-size="14.00">search(): None</text>
</g>
<!-- pman.settings.Settings -->
<g id="node14" class="node">
<title>pman.settings.Settings</title>
<polygon fill="none" stroke="black" points="1455,-15.5 1455,-99.5 1684,-99.5 1684,-15.5 1455,-15.5"/>
<text text-anchor="middle" x="1569.5" y="-84.3" font-family="Times,serif" font-size="14.00">Settings</text>
<polyline fill="none" stroke="black" points="1455,-76.5 1684,-76.5"/>
<text text-anchor="start" x="1463" y="-61.3" font-family="Times,serif" font-size="14.00">DOC_PATH : Optional[DirectoryPath]</text>
<text text-anchor="start" x="1463" y="-46.3" font-family="Times,serif" font-size="14.00">SEARCH_TOOL : str</text>
<polyline fill="none" stroke="black" points="1455,-38.5 1684,-38.5"/>
<text text-anchor="middle" x="1569.5" y="-23.3" font-family="Times,serif" font-size="14.00"> </text>
</g>
</g>
</svg>
