<?xml version="1.0" encoding="UTF-8" standalone="no"?>
<!DOCTYPE svg PUBLIC "-//W3C//DTD SVG 1.1//EN"
 "http://www.w3.org/Graphics/SVG/1.1/DTD/svg11.dtd">
<!-- Generated by graphviz version 7.0.0 (20221023.0053)
 -->
<!-- Title: classes Pages: 1 -->
<svg width="2079pt" height="274pt"
 viewBox="0.00 0.00 2079.00 274.00" xmlns="http://www.w3.org/2000/svg" xmlns:xlink="http://www.w3.org/1999/xlink">
<g id="graph0" class="graph" transform="scale(1 1) rotate(0) translate(4 270)">
<title>classes</title>
<polygon fill="white" stroke="none" points="-4,4 -4,-270 2075,-270 2075,4 -4,4"/>
<!-- pman.cli.CLIApp -->
<g id="node1" class="node">
<title>pman.cli.CLIApp</title>
<polygon fill="none" stroke="black" points="0,-196.5 0,-265.5 95,-265.5 95,-196.5 0,-196.5"/>
<text text-anchor="middle" x="47.5" y="-250.3" font-family="Times,serif" font-size="14.00">CLIApp</text>
<polyline fill="none" stroke="black" points="0,-242.5 95,-242.5"/>
<text text-anchor="start" x="8" y="-227.3" font-family="Times,serif" font-size="14.00">exit_code : int</text>
<polyline fill="none" stroke="black" points="0,-219.5 95,-219.5"/>
<text text-anchor="middle" x="47.5" y="-204.3" font-family="Times,serif" font-size="14.00"> </text>
</g>
<!-- pman.cli.CLIAppTest -->
<g id="node2" class="node">
<title>pman.cli.CLIAppTest</title>
<polygon fill="none" stroke="black" points="5,-45 5,-115 90,-115 90,-45 5,-45"/>
<text text-anchor="middle" x="47.5" y="-99.8" font-family="Times,serif" font-size="14.00">CLIAppTest</text>
<polyline fill="none" stroke="black" points="5,-92 90,-92"/>
<polyline fill="none" stroke="black" points="5,-68 90,-68"/>
<text text-anchor="middle" x="47.5" y="-52.8" font-family="Times,serif" font-size="14.00"> </text>
</g>
<!-- pman.cli.CLIAppTest&#45;&gt;pman.cli.CLIApp -->
<g id="edge1" class="edge">
<title>pman.cli.CLIAppTest&#45;&gt;pman.cli.CLIApp</title>
<path fill="none" stroke="black" d="M47.5,-114.81C47.5,-135.65 47.5,-162.61 47.5,-185.21"/>
<polygon fill="none" stroke="black" points="44,-185.07 47.5,-195.07 51,-185.07 44,-185.07"/>
</g>
<!-- pman.core.exceptions.CLIError -->
<g id="node3" class="node">
<title>pman.core.exceptions.CLIError</title>
<polygon fill="none" stroke="black" points="108,-45 108,-115 175,-115 175,-45 108,-45"/>
<text text-anchor="middle" x="141.5" y="-99.8" font-family="Times,serif" font-size="14.00" fill="red">CLIError</text>
<polyline fill="none" stroke="black" points="108,-92 175,-92"/>
<polyline fill="none" stroke="black" points="108,-68 175,-68"/>
<text text-anchor="middle" x="141.5" y="-52.8" font-family="Times,serif" font-size="14.00" fill="red"> </text>
</g>
<!-- pman.settings.Settings.Config -->
<g id="node4" class="node">
<title>pman.settings.Settings.Config</title>
<polygon fill="none" stroke="black" points="193,-38 193,-122 322,-122 322,-38 193,-38"/>
<text text-anchor="middle" x="257.5" y="-106.8" font-family="Times,serif" font-size="14.00">Config</text>
<polyline fill="none" stroke="black" points="193,-99 322,-99"/>
<text text-anchor="start" x="201" y="-83.8" font-family="Times,serif" font-size="14.00">case_sensitive : bool</text>
<text text-anchor="start" x="201" y="-68.8" font-family="Times,serif" font-size="14.00">env_prefix : str</text>
<polyline fill="none" stroke="black" points="193,-61 322,-61"/>
<text text-anchor="middle" x="257.5" y="-45.8" font-family="Times,serif" font-size="14.00"> </text>
</g>
<!-- pman.output.CustomHeading -->
<g id="node5" class="node">
<title>pman.output.CustomHeading</title>
<polygon fill="none" stroke="black" points="340,-45 340,-115 445,-115 445,-45 340,-45"/>
<text text-anchor="middle" x="392.5" y="-99.8" font-family="Times,serif" font-size="14.00">CustomHeading</text>
<polyline fill="none" stroke="black" points="340,-92 445,-92"/>
<polyline fill="none" stroke="black" points="340,-68 445,-68"/>
<text text-anchor="middle" x="392.5" y="-52.8" font-family="Times,serif" font-size="14.00"> </text>
</g>
<!-- pman.output.CustomMarkdown -->
<g id="node6" class="node">
<title>pman.output.CustomMarkdown</title>
<polygon fill="none" stroke="black" points="463,-45 463,-115 582,-115 582,-45 463,-45"/>
<text text-anchor="middle" x="522.5" y="-99.8" font-family="Times,serif" font-size="14.00">CustomMarkdown</text>
<polyline fill="none" stroke="black" points="463,-92 582,-92"/>
<polyline fill="none" stroke="black" points="463,-68 582,-68"/>
<text text-anchor="middle" x="522.5" y="-52.8" font-family="Times,serif" font-size="14.00"> </text>
</g>
<!-- pman.cli.CLIApp.Meta -->
<g id="node7" class="node">
<title>pman.cli.CLIApp.Meta</title>
<polygon fill="none" stroke="black" points="600,-23 600,-137 731,-137 731,-23 600,-23"/>
<text text-anchor="middle" x="665.5" y="-121.8" font-family="Times,serif" font-size="14.00">Meta</text>
<polyline fill="none" stroke="black" points="600,-114 731,-114"/>
<text text-anchor="start" x="608" y="-98.8" font-family="Times,serif" font-size="14.00">config_defaults : dict</text>
<text text-anchor="start" x="608" y="-83.8" font-family="Times,serif" font-size="14.00">exit_on_close : bool</text>
<text text-anchor="start" x="608" y="-68.8" font-family="Times,serif" font-size="14.00">handlers : list</text>
<text text-anchor="start" x="608" y="-53.8" font-family="Times,serif" font-size="14.00">label : str</text>
<polyline fill="none" stroke="black" points="600,-46 731,-46"/>
<text text-anchor="middle" x="665.5" y="-30.8" font-family="Times,serif" font-size="14.00"> </text>
</g>
<!-- pman.cli.CLIAppTest.Meta -->
<g id="node8" class="node">
<title>pman.cli.CLIAppTest.Meta</title>
<polygon fill="none" stroke="black" points="749.5,-45.5 749.5,-114.5 817.5,-114.5 817.5,-45.5 749.5,-45.5"/>
<text text-anchor="middle" x="783.5" y="-99.3" font-family="Times,serif" font-size="14.00">Meta</text>
<polyline fill="none" stroke="black" points="749.5,-91.5 817.5,-91.5"/>
<text text-anchor="start" x="757.5" y="-76.3" font-family="Times,serif" font-size="14.00">label : str</text>
<polyline fill="none" stroke="black" points="749.5,-68.5 817.5,-68.5"/>
<text text-anchor="middle" x="783.5" y="-53.3" font-family="Times,serif" font-size="14.00"> </text>
</g>
<!-- pman.controllers.show_controller.ShowController.Meta -->
<g id="node9" class="node">
<title>pman.controllers.show_controller.ShowController.Meta</title>
<polygon fill="none" stroke="black" points="836,-38 836,-122 937,-122 937,-38 836,-38"/>
<text text-anchor="middle" x="886.5" y="-106.8" font-family="Times,serif" font-size="14.00">Meta</text>
<polyline fill="none" stroke="black" points="836,-99 937,-99"/>
<text text-anchor="start" x="844" y="-83.8" font-family="Times,serif" font-size="14.00">arguments : list</text>
<text text-anchor="start" x="844" y="-68.8" font-family="Times,serif" font-size="14.00">label : str</text>
<polyline fill="none" stroke="black" points="836,-61 937,-61"/>
<text text-anchor="middle" x="886.5" y="-45.8" font-family="Times,serif" font-size="14.00"> </text>
</g>
<!-- pman.controllers.search_controller.SearchController.Meta -->
<g id="node10" class="node">
<title>pman.controllers.search_controller.SearchController.Meta</title>
<polygon fill="none" stroke="black" points="955,-38 955,-122 1056,-122 1056,-38 955,-38"/>
<text text-anchor="middle" x="1005.5" y="-106.8" font-family="Times,serif" font-size="14.00">Meta</text>
<polyline fill="none" stroke="black" points="955,-99 1056,-99"/>
<text text-anchor="start" x="963" y="-83.8" font-family="Times,serif" font-size="14.00">arguments : list</text>
<text text-anchor="start" x="963" y="-68.8" font-family="Times,serif" font-size="14.00">label : str</text>
<polyline fill="none" stroke="black" points="955,-61 1056,-61"/>
<text text-anchor="middle" x="1005.5" y="-45.8" font-family="Times,serif" font-size="14.00"> </text>
</g>
<!-- pman.core.exceptions.NoManpageMatch -->
<g id="node11" class="node">
<title>pman.core.exceptions.NoManpageMatch</title>
<polygon fill="none" stroke="black" points="1074,-45 1074,-115 1193,-115 1193,-45 1074,-45"/>
<text text-anchor="middle" x="1133.5" y="-99.8" font-family="Times,serif" font-size="14.00" fill="red">NoManpageMatch</text>
<polyline fill="none" stroke="black" points="1074,-92 1193,-92"/>
<polyline fill="none" stroke="black" points="1074,-68 1193,-68"/>
<text text-anchor="middle" x="1133.5" y="-52.8" font-family="Times,serif" font-size="14.00" fill="red"> </text>
</g>
<!-- pman.output.Output -->
<g id="node12" class="node">
<title>pman.output.Output</title>
<polygon fill="none" stroke="black" points="1211,-0.5 1211,-159.5 1668,-159.5 1668,-0.5 1211,-0.5"/>
<text text-anchor="middle" x="1439.5" y="-144.3" font-family="Times,serif" font-size="14.00">Output</text>
<polyline fill="none" stroke="black" points="1211,-136.5 1668,-136.5"/>
<text text-anchor="start" x="1219" y="-121.3" font-family="Times,serif" font-size="14.00">console : Console</text>
<polyline fill="none" stroke="black" points="1211,-113.5 1668,-113.5"/>
<text text-anchor="start" x="1219" y="-98.3" font-family="Times,serif" font-size="14.00">ask(question: str, choices: list[str]): str</text>
<text text-anchor="start" x="1219" y="-83.3" font-family="Times,serif" font-size="14.00">ask_file(question: str, base_dir: Path, files: list[Path]): Path</text>
<text text-anchor="start" x="1219" y="-68.3" font-family="Times,serif" font-size="14.00">ask_rich(question: str, choices: list[str]): str</text>
<text text-anchor="start" x="1219" y="-53.3" font-family="Times,serif" font-size="14.00">write(msg: str, styles: str): None</text>
<text text-anchor="start" x="1219" y="-38.3" font-family="Times,serif" font-size="14.00">write_md(path_md: Path): None</text>
<text text-anchor="start" x="1219" y="-23.3" font-family="Times,serif" font-size="14.00">write_new_line(): None</text>
<text text-anchor="start" x="1219" y="-8.3" font-family="Times,serif" font-size="14.00">write_table(columns: list[_CELL_TYPE], rows: list[list[_CELL_TYPE]]): None</text>
</g>
<!-- pman.controllers.search_controller.SearchController -->
<g id="node13" class="node">
<title>pman.controllers.search_controller.SearchController</title>
<polygon fill="none" stroke="black" points="1686,-45 1686,-115 1795,-115 1795,-45 1686,-45"/>
<text text-anchor="middle" x="1740.5" y="-99.8" font-family="Times,serif" font-size="14.00">SearchController</text>
<polyline fill="none" stroke="black" points="1686,-92 1795,-92"/>
<polyline fill="none" stroke="black" points="1686,-68 1795,-68"/>
<text text-anchor="start" x="1694" y="-52.8" font-family="Times,serif" font-size="14.00">search(): None</text>
</g>
<!-- pman.settings.Settings -->
<g id="node14" class="node">
<title>pman.settings.Settings</title>
<polygon fill="none" stroke="black" points="1813,-38 1813,-122 1950,-122 1950,-38 1813,-38"/>
<text text-anchor="middle" x="1881.5" y="-106.8" font-family="Times,serif" font-size="14.00">Settings</text>
<polyline fill="none" stroke="black" points="1813,-99 1950,-99"/>
<text text-anchor="start" x="1821" y="-83.8" font-family="Times,serif" font-size="14.00">DOC_PATH</text>
<text text-anchor="start" x="1821" y="-68.8" font-family="Times,serif" font-size="14.00">SEARCH_TOOL : str</text>
<polyline fill="none" stroke="black" points="1813,-61 1950,-61"/>
<text text-anchor="middle" x="1881.5" y="-45.8" font-family="Times,serif" font-size="14.00"> </text>
</g>
<!-- pman.controllers.show_controller.ShowController -->
<g id="node15" class="node">
<title>pman.controllers.show_controller.ShowController</title>
<polygon fill="none" stroke="black" points="1968,-45 1968,-115 2071,-115 2071,-45 1968,-45"/>
<text text-anchor="middle" x="2019.5" y="-99.8" font-family="Times,serif" font-size="14.00">ShowController</text>
<polyline fill="none" stroke="black" points="1968,-92 2071,-92"/>
<polyline fill="none" stroke="black" points="1968,-68 2071,-68"/>
<text text-anchor="start" x="1976" y="-52.8" font-family="Times,serif" font-size="14.00">show(): None</text>
</g>
</g>
</svg>
