<?xml version="1.0" encoding="UTF-8" standalone="no"?>
<!DOCTYPE svg PUBLIC "-//W3C//DTD SVG 1.1//EN"
 "http://www.w3.org/Graphics/SVG/1.1/DTD/svg11.dtd">
<!-- Generated by graphviz version 2.43.0 (0)
 -->
<!-- Title: classes Pages: 1 -->
<svg width="2051pt" height="229pt"
 viewBox="0.00 0.00 2050.50 229.00" xmlns="http://www.w3.org/2000/svg" xmlns:xlink="http://www.w3.org/1999/xlink">
<g id="graph0" class="graph" transform="scale(1 1) rotate(0) translate(4 225)">
<title>classes</title>
<polygon fill="white" stroke="transparent" points="-4,4 -4,-225 2046.5,-225 2046.5,4 -4,4"/>
<!-- pman.cli.CLIApp -->
<g id="node1" class="node">
<title>pman.cli.CLIApp</title>
<polygon fill="none" stroke="black" points="0,-151.5 0,-220.5 116,-220.5 116,-151.5 0,-151.5"/>
<text text-anchor="middle" x="58" y="-205.3" font-family="Times,serif" font-size="14.00">CLIApp</text>
<polyline fill="none" stroke="black" points="0,-197.5 116,-197.5 "/>
<text text-anchor="start" x="8" y="-182.3" font-family="Times,serif" font-size="14.00">exit_code : int</text>
<polyline fill="none" stroke="black" points="0,-174.5 116,-174.5 "/>
<text text-anchor="middle" x="58" y="-159.3" font-family="Times,serif" font-size="14.00"> </text>
</g>
<!-- pman.cli.CLIAppTest -->
<g id="node2" class="node">
<title>pman.cli.CLIAppTest</title>
<polygon fill="none" stroke="black" points="8.5,-22.5 8.5,-92.5 107.5,-92.5 107.5,-22.5 8.5,-22.5"/>
<text text-anchor="middle" x="58" y="-77.3" font-family="Times,serif" font-size="14.00">CLIAppTest</text>
<polyline fill="none" stroke="black" points="8.5,-69.5 107.5,-69.5 "/>
<polyline fill="none" stroke="black" points="8.5,-45.5 107.5,-45.5 "/>
<text text-anchor="middle" x="58" y="-30.3" font-family="Times,serif" font-size="14.00"> </text>
</g>
<!-- pman.cli.CLIAppTest&#45;&gt;pman.cli.CLIApp -->
<g id="edge1" class="edge">
<title>pman.cli.CLIAppTest&#45;&gt;pman.cli.CLIApp</title>
<path fill="none" stroke="black" d="M58,-92.73C58,-107.62 58,-125.24 58,-141.08"/>
<polygon fill="none" stroke="black" points="54.5,-141.18 58,-151.18 61.5,-141.18 54.5,-141.18"/>
</g>
<!-- pman.core.exceptions.CLIError -->
<g id="node3" class="node">
<title>pman.core.exceptions.CLIError</title>
<polygon fill="none" stroke="black" points="126,-22.5 126,-92.5 206,-92.5 206,-22.5 126,-22.5"/>
<text text-anchor="middle" x="166" y="-77.3" font-family="Times,serif" font-size="14.00" fill="red">CLIError</text>
<polyline fill="none" stroke="black" points="126,-69.5 206,-69.5 "/>
<polyline fill="none" stroke="black" points="126,-45.5 206,-45.5 "/>
<text text-anchor="middle" x="166" y="-30.3" font-family="Times,serif" font-size="14.00" fill="red"> </text>
</g>
<!-- pman.settings.Settings.Config -->
<g id="node4" class="node">
<title>pman.settings.Settings.Config</title>
<polygon fill="none" stroke="black" points="224,-15.5 224,-99.5 386,-99.5 386,-15.5 224,-15.5"/>
<text text-anchor="middle" x="305" y="-84.3" font-family="Times,serif" font-size="14.00">Config</text>
<polyline fill="none" stroke="black" points="224,-76.5 386,-76.5 "/>
<text text-anchor="start" x="232" y="-61.3" font-family="Times,serif" font-size="14.00">case_sensitive : bool</text>
<text text-anchor="start" x="232" y="-46.3" font-family="Times,serif" font-size="14.00">env_prefix : str</text>
<polyline fill="none" stroke="black" points="224,-38.5 386,-38.5 "/>
<text text-anchor="middle" x="305" y="-23.3" font-family="Times,serif" font-size="14.00"> </text>
</g>
<!-- pman.man.CustomHeading -->
<g id="node5" class="node">
<title>pman.man.CustomHeading</title>
<polygon fill="none" stroke="black" points="404.5,-22.5 404.5,-92.5 535.5,-92.5 535.5,-22.5 404.5,-22.5"/>
<text text-anchor="middle" x="470" y="-77.3" font-family="Times,serif" font-size="14.00">CustomHeading</text>
<polyline fill="none" stroke="black" points="404.5,-69.5 535.5,-69.5 "/>
<polyline fill="none" stroke="black" points="404.5,-45.5 535.5,-45.5 "/>
<text text-anchor="middle" x="470" y="-30.3" font-family="Times,serif" font-size="14.00"> </text>
</g>
<!-- pman.man.CustomMarkdown -->
<g id="node6" class="node">
<title>pman.man.CustomMarkdown</title>
<polygon fill="none" stroke="black" points="553.5,-22.5 553.5,-92.5 700.5,-92.5 700.5,-22.5 553.5,-22.5"/>
<text text-anchor="middle" x="627" y="-77.3" font-family="Times,serif" font-size="14.00">CustomMarkdown</text>
<polyline fill="none" stroke="black" points="553.5,-69.5 700.5,-69.5 "/>
<polyline fill="none" stroke="black" points="553.5,-45.5 700.5,-45.5 "/>
<text text-anchor="middle" x="627" y="-30.3" font-family="Times,serif" font-size="14.00"> </text>
</g>
<!-- pman.controllers.man_controller.ManController -->
<g id="node7" class="node">
<title>pman.controllers.man_controller.ManController</title>
<polygon fill="none" stroke="black" points="718.5,-22.5 718.5,-92.5 839.5,-92.5 839.5,-22.5 718.5,-22.5"/>
<text text-anchor="middle" x="779" y="-77.3" font-family="Times,serif" font-size="14.00">ManController</text>
<polyline fill="none" stroke="black" points="718.5,-69.5 839.5,-69.5 "/>
<polyline fill="none" stroke="black" points="718.5,-45.5 839.5,-45.5 "/>
<text text-anchor="start" x="726.5" y="-30.3" font-family="Times,serif" font-size="14.00">man(): None</text>
</g>
<!-- pman.cli.CLIApp.Meta -->
<g id="node8" class="node">
<title>pman.cli.CLIApp.Meta</title>
<polygon fill="none" stroke="black" points="858,-0.5 858,-114.5 1022,-114.5 1022,-0.5 858,-0.5"/>
<text text-anchor="middle" x="940" y="-99.3" font-family="Times,serif" font-size="14.00">Meta</text>
<polyline fill="none" stroke="black" points="858,-91.5 1022,-91.5 "/>
<text text-anchor="start" x="866" y="-76.3" font-family="Times,serif" font-size="14.00">config_defaults : dict</text>
<text text-anchor="start" x="866" y="-61.3" font-family="Times,serif" font-size="14.00">exit_on_close : bool</text>
<text text-anchor="start" x="866" y="-46.3" font-family="Times,serif" font-size="14.00">handlers : list</text>
<text text-anchor="start" x="866" y="-31.3" font-family="Times,serif" font-size="14.00">label : str</text>
<polyline fill="none" stroke="black" points="858,-23.5 1022,-23.5 "/>
<text text-anchor="middle" x="940" y="-8.3" font-family="Times,serif" font-size="14.00"> </text>
</g>
<!-- pman.cli.CLIAppTest.Meta -->
<g id="node9" class="node">
<title>pman.cli.CLIAppTest.Meta</title>
<polygon fill="none" stroke="black" points="1040.5,-23 1040.5,-92 1125.5,-92 1125.5,-23 1040.5,-23"/>
<text text-anchor="middle" x="1083" y="-76.8" font-family="Times,serif" font-size="14.00">Meta</text>
<polyline fill="none" stroke="black" points="1040.5,-69 1125.5,-69 "/>
<text text-anchor="start" x="1048.5" y="-53.8" font-family="Times,serif" font-size="14.00">label : str</text>
<polyline fill="none" stroke="black" points="1040.5,-46 1125.5,-46 "/>
<text text-anchor="middle" x="1083" y="-30.8" font-family="Times,serif" font-size="14.00"> </text>
</g>
<!-- pman.controllers.search_controller.SearchController.Meta -->
<g id="node10" class="node">
<title>pman.controllers.search_controller.SearchController.Meta</title>
<polygon fill="none" stroke="black" points="1144,-15.5 1144,-99.5 1274,-99.5 1274,-15.5 1144,-15.5"/>
<text text-anchor="middle" x="1209" y="-84.3" font-family="Times,serif" font-size="14.00">Meta</text>
<polyline fill="none" stroke="black" points="1144,-76.5 1274,-76.5 "/>
<text text-anchor="start" x="1152" y="-61.3" font-family="Times,serif" font-size="14.00">arguments : list</text>
<text text-anchor="start" x="1152" y="-46.3" font-family="Times,serif" font-size="14.00">label : str</text>
<polyline fill="none" stroke="black" points="1144,-38.5 1274,-38.5 "/>
<text text-anchor="middle" x="1209" y="-23.3" font-family="Times,serif" font-size="14.00"> </text>
</g>
<!-- pman.controllers.man_controller.ManController.Meta -->
<g id="node11" class="node">
<title>pman.controllers.man_controller.ManController.Meta</title>
<polygon fill="none" stroke="black" points="1292,-15.5 1292,-99.5 1422,-99.5 1422,-15.5 1292,-15.5"/>
<text text-anchor="middle" x="1357" y="-84.3" font-family="Times,serif" font-size="14.00">Meta</text>
<polyline fill="none" stroke="black" points="1292,-76.5 1422,-76.5 "/>
<text text-anchor="start" x="1300" y="-61.3" font-family="Times,serif" font-size="14.00">arguments : list</text>
<text text-anchor="start" x="1300" y="-46.3" font-family="Times,serif" font-size="14.00">label : str</text>
<polyline fill="none" stroke="black" points="1292,-38.5 1422,-38.5 "/>
<text text-anchor="middle" x="1357" y="-23.3" font-family="Times,serif" font-size="14.00"> </text>
</g>
<!-- pman.core.exceptions.NoManpageMatch -->
<g id="node12" class="node">
<title>pman.core.exceptions.NoManpageMatch</title>
<polygon fill="none" stroke="black" points="1440,-22.5 1440,-92.5 1588,-92.5 1588,-22.5 1440,-22.5"/>
<text text-anchor="middle" x="1514" y="-77.3" font-family="Times,serif" font-size="14.00" fill="red">NoManpageMatch</text>
<polyline fill="none" stroke="black" points="1440,-69.5 1588,-69.5 "/>
<polyline fill="none" stroke="black" points="1440,-45.5 1588,-45.5 "/>
<text text-anchor="middle" x="1514" y="-30.3" font-family="Times,serif" font-size="14.00" fill="red"> </text>
</g>
<!-- pman.controllers.search_controller.SearchController -->
<g id="node13" class="node">
<title>pman.controllers.search_controller.SearchController</title>
<polygon fill="none" stroke="black" points="1606.5,-22.5 1606.5,-92.5 1745.5,-92.5 1745.5,-22.5 1606.5,-22.5"/>
<text text-anchor="middle" x="1676" y="-77.3" font-family="Times,serif" font-size="14.00">SearchController</text>
<polyline fill="none" stroke="black" points="1606.5,-69.5 1745.5,-69.5 "/>
<polyline fill="none" stroke="black" points="1606.5,-45.5 1745.5,-45.5 "/>
<text text-anchor="start" x="1614.5" y="-30.3" font-family="Times,serif" font-size="14.00">search(): None</text>
</g>
<!-- pman.settings.Settings -->
<g id="node14" class="node">
<title>pman.settings.Settings</title>
<polygon fill="none" stroke="black" points="1763.5,-15.5 1763.5,-99.5 2042.5,-99.5 2042.5,-15.5 1763.5,-15.5"/>
<text text-anchor="middle" x="1903" y="-84.3" font-family="Times,serif" font-size="14.00">Settings</text>
<polyline fill="none" stroke="black" points="1763.5,-76.5 2042.5,-76.5 "/>
<text text-anchor="start" x="1771.5" y="-61.3" font-family="Times,serif" font-size="14.00">DOC_PATH : Optional[DirectoryPath]</text>
<text text-anchor="start" x="1771.5" y="-46.3" font-family="Times,serif" font-size="14.00">SEARCH_TOOL : str</text>
<polyline fill="none" stroke="black" points="1763.5,-38.5 2042.5,-38.5 "/>
<text text-anchor="middle" x="1903" y="-23.3" font-family="Times,serif" font-size="14.00"> </text>
</g>
</g>
</svg>
