<?xml version="1.0" encoding="UTF-8" standalone="no"?>
<!DOCTYPE svg PUBLIC "-//W3C//DTD SVG 1.1//EN"
 "http://www.w3.org/Graphics/SVG/1.1/DTD/svg11.dtd">
<!-- Generated by graphviz version 7.0.0 (20221023.0053)
 -->
<!-- Title: packages Pages: 1 -->
<svg width="840pt" height="188pt"
 viewBox="0.00 0.00 839.50 188.00" xmlns="http://www.w3.org/2000/svg" xmlns:xlink="http://www.w3.org/1999/xlink">
<g id="graph0" class="graph" transform="scale(1 1) rotate(0) translate(4 184)">
<title>packages</title>
<polygon fill="white" stroke="none" points="-4,4 -4,-184 835.5,-184 835.5,4 -4,4"/>
<!-- pman -->
<g id="node1" class="node">
<title>pman</title>
<polygon fill="none" stroke="black" points="344,-36 290,-36 290,0 344,0 344,-36"/>
<text text-anchor="middle" x="317" y="-14.3" font-family="Times,serif" font-size="14.00">pman</text>
</g>
<!-- pman.cli -->
<g id="node2" class="node">
<title>pman.cli</title>
<polygon fill="none" stroke="black" points="349.5,-108 284.5,-108 284.5,-72 349.5,-72 349.5,-108"/>
<text text-anchor="middle" x="317" y="-86.3" font-family="Times,serif" font-size="14.00">pman.cli</text>
</g>
<!-- pman&#45;&gt;pman.cli -->
<g id="edge1" class="edge">
<title>pman&#45;&gt;pman.cli</title>
<path fill="none" stroke="black" d="M317,-36.3C317,-44.1 317,-53.49 317,-62.17"/>
<polygon fill="black" stroke="black" points="317,-71.9 312.5,-61.9 317,-66.9 317,-61.9 317,-61.9 317,-61.9 317,-66.9 321.5,-61.9 317,-71.9 317,-71.9"/>
</g>
<!-- pman.controllers.man_controller -->
<g id="node4" class="node">
<title>pman.controllers.man_controller</title>
<polygon fill="none" stroke="black" points="196,-180 0,-180 0,-144 196,-144 196,-180"/>
<text text-anchor="middle" x="98" y="-158.3" font-family="Times,serif" font-size="14.00">pman.controllers.man_controller</text>
</g>
<!-- pman.cli&#45;&gt;pman.controllers.man_controller -->
<g id="edge2" class="edge">
<title>pman.cli&#45;&gt;pman.controllers.man_controller</title>
<path fill="none" stroke="black" d="M284.21,-101.48C252.07,-111.75 202.2,-127.7 162.15,-140.5"/>
<polygon fill="black" stroke="black" points="152.72,-143.51 160.88,-136.18 157.49,-141.99 162.25,-140.46 162.25,-140.46 162.25,-140.46 157.49,-141.99 163.62,-144.75 152.72,-143.51 152.72,-143.51"/>
</g>
<!-- pman.controllers.search_controller -->
<g id="node5" class="node">
<title>pman.controllers.search_controller</title>
<polygon fill="none" stroke="black" points="420,-180 214,-180 214,-144 420,-144 420,-180"/>
<text text-anchor="middle" x="317" y="-158.3" font-family="Times,serif" font-size="14.00">pman.controllers.search_controller</text>
</g>
<!-- pman.cli&#45;&gt;pman.controllers.search_controller -->
<g id="edge3" class="edge">
<title>pman.cli&#45;&gt;pman.controllers.search_controller</title>
<path fill="none" stroke="black" d="M317,-108.3C317,-116.1 317,-125.49 317,-134.17"/>
<polygon fill="black" stroke="black" points="317,-143.9 312.5,-133.9 317,-138.9 317,-133.9 317,-133.9 317,-133.9 317,-138.9 321.5,-133.9 317,-143.9 317,-143.9"/>
</g>
<!-- pman.core.exceptions -->
<g id="node7" class="node">
<title>pman.core.exceptions</title>
<polygon fill="none" stroke="black" points="574,-180 438,-180 438,-144 574,-144 574,-180"/>
<text text-anchor="middle" x="506" y="-158.3" font-family="Times,serif" font-size="14.00">pman.core.exceptions</text>
</g>
<!-- pman.cli&#45;&gt;pman.core.exceptions -->
<g id="edge4" class="edge">
<title>pman.cli&#45;&gt;pman.core.exceptions</title>
<path fill="none" stroke="black" d="M349.92,-103.19C377.47,-113.4 417.39,-128.18 449.96,-140.25"/>
<polygon fill="black" stroke="black" points="458.94,-143.57 448,-144.32 454.25,-141.83 449.56,-140.1 449.56,-140.1 449.56,-140.1 454.25,-141.83 451.12,-135.88 458.94,-143.57 458.94,-143.57"/>
</g>
<!-- pman.controllers -->
<g id="node3" class="node">
<title>pman.controllers</title>
<polygon fill="none" stroke="black" points="471.5,-36 362.5,-36 362.5,0 471.5,0 471.5,-36"/>
<text text-anchor="middle" x="417" y="-14.3" font-family="Times,serif" font-size="14.00">pman.controllers</text>
</g>
<!-- pman.core -->
<g id="node6" class="node">
<title>pman.core</title>
<polygon fill="none" stroke="black" points="564,-36 490,-36 490,0 564,0 564,-36"/>
<text text-anchor="middle" x="527" y="-14.3" font-family="Times,serif" font-size="14.00">pman.core</text>
</g>
<!-- pman.core.version -->
<g id="node8" class="node">
<title>pman.core.version</title>
<polygon fill="none" stroke="black" points="700,-36 582,-36 582,0 700,0 700,-36"/>
<text text-anchor="middle" x="641" y="-14.3" font-family="Times,serif" font-size="14.00">pman.core.version</text>
</g>
<!-- pman.man -->
<g id="node9" class="node">
<title>pman.man</title>
<polygon fill="none" stroke="black" points="559.5,-108 484.5,-108 484.5,-72 559.5,-72 559.5,-108"/>
<text text-anchor="middle" x="522" y="-86.3" font-family="Times,serif" font-size="14.00">pman.man</text>
</g>
<!-- pman.man&#45;&gt;pman.core.exceptions -->
<g id="edge5" class="edge">
<title>pman.man&#45;&gt;pman.core.exceptions</title>
<path fill="none" stroke="black" d="M518.04,-108.3C516.26,-116.1 514.12,-125.49 512.13,-134.17"/>
<polygon fill="black" stroke="black" points="509.91,-143.9 507.75,-133.14 511.02,-139.02 512.14,-134.15 512.14,-134.15 512.14,-134.15 511.02,-139.02 516.52,-135.15 509.91,-143.9 509.91,-143.9"/>
</g>
<!-- pman.settings -->
<g id="node12" class="node">
<title>pman.settings</title>
<polygon fill="none" stroke="black" points="684,-180 592,-180 592,-144 684,-144 684,-180"/>
<text text-anchor="middle" x="638" y="-158.3" font-family="Times,serif" font-size="14.00">pman.settings</text>
</g>
<!-- pman.man&#45;&gt;pman.settings -->
<g id="edge6" class="edge">
<title>pman.man&#45;&gt;pman.settings</title>
<path fill="none" stroke="black" d="M550.97,-108.48C566.17,-117.66 584.96,-128.99 601.18,-138.78"/>
<polygon fill="black" stroke="black" points="609.4,-143.74 598.51,-142.43 605.12,-141.16 600.83,-138.57 600.83,-138.57 600.83,-138.57 605.12,-141.16 603.16,-134.72 609.4,-143.74 609.4,-143.74"/>
</g>
<!-- pman.onboarding -->
<g id="node10" class="node">
<title>pman.onboarding</title>
<polygon fill="none" stroke="black" points="831.5,-36 718.5,-36 718.5,0 831.5,0 831.5,-36"/>
<text text-anchor="middle" x="775" y="-14.3" font-family="Times,serif" font-size="14.00">pman.onboarding</text>
</g>
<!-- pman.search -->
<g id="node11" class="node">
<title>pman.search</title>
<polygon fill="none" stroke="black" points="681,-108 595,-108 595,-72 681,-72 681,-108"/>
<text text-anchor="middle" x="638" y="-86.3" font-family="Times,serif" font-size="14.00">pman.search</text>
</g>
<!-- pman.search&#45;&gt;pman.settings -->
<g id="edge7" class="edge">
<title>pman.search&#45;&gt;pman.settings</title>
<path fill="none" stroke="black" d="M638,-108.3C638,-116.1 638,-125.49 638,-134.17"/>
<polygon fill="black" stroke="black" points="638,-143.9 633.5,-133.9 638,-138.9 638,-133.9 638,-133.9 638,-133.9 638,-138.9 642.5,-133.9 638,-143.9 638,-143.9"/>
</g>
</g>
</svg>
