<?xml version="1.0" encoding="UTF-8" standalone="no"?>
<!DOCTYPE svg PUBLIC "-//W3C//DTD SVG 1.1//EN"
 "http://www.w3.org/Graphics/SVG/1.1/DTD/svg11.dtd">
<!-- Generated by graphviz version 2.43.0 (0)
 -->
<!-- Title: packages Pages: 1 -->
<svg width="1031pt" height="188pt"
 viewBox="0.00 0.00 1031.00 188.00" xmlns="http://www.w3.org/2000/svg" xmlns:xlink="http://www.w3.org/1999/xlink">
<g id="graph0" class="graph" transform="scale(1 1) rotate(0) translate(4 184)">
<title>packages</title>
<polygon fill="white" stroke="transparent" points="-4,4 -4,-184 1027,-184 1027,4 -4,4"/>
<!-- pman -->
<g id="node1" class="node">
<title>pman</title>
<polygon fill="none" stroke="black" points="429,-36 373,-36 373,0 429,0 429,-36"/>
<text text-anchor="middle" x="401" y="-14.3" font-family="Times,serif" font-size="14.00">pman</text>
</g>
<!-- pman.cli -->
<g id="node2" class="node">
<title>pman.cli</title>
<polygon fill="none" stroke="black" points="439.5,-108 362.5,-108 362.5,-72 439.5,-72 439.5,-108"/>
<text text-anchor="middle" x="401" y="-86.3" font-family="Times,serif" font-size="14.00">pman.cli</text>
</g>
<!-- pman&#45;&gt;pman.cli -->
<g id="edge1" class="edge">
<title>pman&#45;&gt;pman.cli</title>
<path fill="none" stroke="black" d="M401,-36.3C401,-44.02 401,-53.29 401,-61.89"/>
<polygon fill="black" stroke="black" points="401,-71.9 396.5,-61.9 401,-66.9 401,-61.9 401,-61.9 401,-61.9 401,-66.9 405.5,-61.9 401,-71.9 401,-71.9"/>
</g>
<!-- pman.controllers.man_controller -->
<g id="node4" class="node">
<title>pman.controllers.man_controller</title>
<polygon fill="none" stroke="black" points="250,-180 0,-180 0,-144 250,-144 250,-180"/>
<text text-anchor="middle" x="125" y="-158.3" font-family="Times,serif" font-size="14.00">pman.controllers.man_controller</text>
</g>
<!-- pman.cli&#45;&gt;pman.controllers.man_controller -->
<g id="edge2" class="edge">
<title>pman.cli&#45;&gt;pman.controllers.man_controller</title>
<path fill="none" stroke="black" d="M362.33,-100.81C320.94,-111.31 254.18,-128.24 201.99,-141.47"/>
<polygon fill="black" stroke="black" points="192.09,-143.98 200.68,-137.16 196.94,-142.75 201.79,-141.53 201.79,-141.53 201.79,-141.53 196.94,-142.75 202.89,-145.89 192.09,-143.98 192.09,-143.98"/>
</g>
<!-- pman.controllers.search_controller -->
<g id="node5" class="node">
<title>pman.controllers.search_controller</title>
<polygon fill="none" stroke="black" points="534,-180 268,-180 268,-144 534,-144 534,-180"/>
<text text-anchor="middle" x="401" y="-158.3" font-family="Times,serif" font-size="14.00">pman.controllers.search_controller</text>
</g>
<!-- pman.cli&#45;&gt;pman.controllers.search_controller -->
<g id="edge3" class="edge">
<title>pman.cli&#45;&gt;pman.controllers.search_controller</title>
<path fill="none" stroke="black" d="M401,-108.3C401,-116.02 401,-125.29 401,-133.89"/>
<polygon fill="black" stroke="black" points="401,-143.9 396.5,-133.9 401,-138.9 401,-133.9 401,-133.9 401,-133.9 401,-138.9 405.5,-133.9 401,-143.9 401,-143.9"/>
</g>
<!-- pman.core.exceptions -->
<g id="node7" class="node">
<title>pman.core.exceptions</title>
<polygon fill="none" stroke="black" points="725.5,-180 552.5,-180 552.5,-144 725.5,-144 725.5,-180"/>
<text text-anchor="middle" x="639" y="-158.3" font-family="Times,serif" font-size="14.00">pman.core.exceptions</text>
</g>
<!-- pman.cli&#45;&gt;pman.core.exceptions -->
<g id="edge4" class="edge">
<title>pman.cli&#45;&gt;pman.core.exceptions</title>
<path fill="none" stroke="black" d="M439.5,-102.32C475.02,-112.77 528.55,-128.51 571.22,-141.06"/>
<polygon fill="black" stroke="black" points="580.98,-143.94 570.12,-145.43 576.18,-142.52 571.39,-141.11 571.39,-141.11 571.39,-141.11 576.18,-142.52 572.66,-136.8 580.98,-143.94 580.98,-143.94"/>
</g>
<!-- pman.controllers -->
<g id="node3" class="node">
<title>pman.controllers</title>
<polygon fill="none" stroke="black" points="585,-36 447,-36 447,0 585,0 585,-36"/>
<text text-anchor="middle" x="516" y="-14.3" font-family="Times,serif" font-size="14.00">pman.controllers</text>
</g>
<!-- pman.core -->
<g id="node6" class="node">
<title>pman.core</title>
<polygon fill="none" stroke="black" points="695,-36 603,-36 603,0 695,0 695,-36"/>
<text text-anchor="middle" x="649" y="-14.3" font-family="Times,serif" font-size="14.00">pman.core</text>
</g>
<!-- pman.core.version -->
<g id="node8" class="node">
<title>pman.core.version</title>
<polygon fill="none" stroke="black" points="862.5,-36 713.5,-36 713.5,0 862.5,0 862.5,-36"/>
<text text-anchor="middle" x="788" y="-14.3" font-family="Times,serif" font-size="14.00">pman.core.version</text>
</g>
<!-- pman.man -->
<g id="node9" class="node">
<title>pman.man</title>
<polygon fill="none" stroke="black" points="708,-108 616,-108 616,-72 708,-72 708,-108"/>
<text text-anchor="middle" x="662" y="-86.3" font-family="Times,serif" font-size="14.00">pman.man</text>
</g>
<!-- pman.man&#45;&gt;pman.core.exceptions -->
<g id="edge5" class="edge">
<title>pman.man&#45;&gt;pman.core.exceptions</title>
<path fill="none" stroke="black" d="M656.31,-108.3C653.75,-116.1 650.67,-125.49 647.82,-134.17"/>
<polygon fill="black" stroke="black" points="644.62,-143.9 643.47,-132.99 646.18,-139.15 647.74,-134.4 647.74,-134.4 647.74,-134.4 646.18,-139.15 652.02,-135.8 644.62,-143.9 644.62,-143.9"/>
</g>
<!-- pman.settings -->
<g id="node12" class="node">
<title>pman.settings</title>
<polygon fill="none" stroke="black" points="862.5,-180 743.5,-180 743.5,-144 862.5,-144 862.5,-180"/>
<text text-anchor="middle" x="803" y="-158.3" font-family="Times,serif" font-size="14.00">pman.settings</text>
</g>
<!-- pman.man&#45;&gt;pman.settings -->
<g id="edge6" class="edge">
<title>pman.man&#45;&gt;pman.settings</title>
<path fill="none" stroke="black" d="M696.49,-108.12C715.44,-117.53 739.13,-129.29 759.36,-139.33"/>
<polygon fill="black" stroke="black" points="768.37,-143.81 757.42,-143.39 763.9,-141.59 759.42,-139.36 759.42,-139.36 759.42,-139.36 763.9,-141.59 761.42,-135.33 768.37,-143.81 768.37,-143.81"/>
</g>
<!-- pman.onboarding -->
<g id="node10" class="node">
<title>pman.onboarding</title>
<polygon fill="none" stroke="black" points="1023,-36 881,-36 881,0 1023,0 1023,-36"/>
<text text-anchor="middle" x="952" y="-14.3" font-family="Times,serif" font-size="14.00">pman.onboarding</text>
</g>
<!-- pman.search -->
<g id="node11" class="node">
<title>pman.search</title>
<polygon fill="none" stroke="black" points="857,-108 749,-108 749,-72 857,-72 857,-108"/>
<text text-anchor="middle" x="803" y="-86.3" font-family="Times,serif" font-size="14.00">pman.search</text>
</g>
<!-- pman.search&#45;&gt;pman.settings -->
<g id="edge7" class="edge">
<title>pman.search&#45;&gt;pman.settings</title>
<path fill="none" stroke="black" d="M803,-108.3C803,-116.02 803,-125.29 803,-133.89"/>
<polygon fill="black" stroke="black" points="803,-143.9 798.5,-133.9 803,-138.9 803,-133.9 803,-133.9 803,-133.9 803,-138.9 807.5,-133.9 803,-143.9 803,-143.9"/>
</g>
</g>
</svg>
