<?xml version="1.0" encoding="UTF-8" standalone="no"?>
<!DOCTYPE svg PUBLIC "-//W3C//DTD SVG 1.1//EN"
 "http://www.w3.org/Graphics/SVG/1.1/DTD/svg11.dtd">
<!-- Generated by graphviz version 7.0.0 (20221023.0053)
 -->
<!-- Title: packages Pages: 1 -->
<svg width="847pt" height="260pt"
 viewBox="0.00 0.00 846.50 260.00" xmlns="http://www.w3.org/2000/svg" xmlns:xlink="http://www.w3.org/1999/xlink">
<g id="graph0" class="graph" transform="scale(1 1) rotate(0) translate(4 256)">
<title>packages</title>
<polygon fill="white" stroke="none" points="-4,4 -4,-256 842.5,-256 842.5,4 -4,4"/>
<!-- pman -->
<g id="node1" class="node">
<title>pman</title>
<polygon fill="none" stroke="black" points="351,-36 297,-36 297,0 351,0 351,-36"/>
<text text-anchor="middle" x="324" y="-14.3" font-family="Times,serif" font-size="14.00">pman</text>
</g>
<!-- pman.cli -->
<g id="node2" class="node">
<title>pman.cli</title>
<polygon fill="none" stroke="black" points="356.5,-108 291.5,-108 291.5,-72 356.5,-72 356.5,-108"/>
<text text-anchor="middle" x="324" y="-86.3" font-family="Times,serif" font-size="14.00">pman.cli</text>
</g>
<!-- pman&#45;&gt;pman.cli -->
<g id="edge1" class="edge">
<title>pman&#45;&gt;pman.cli</title>
<path fill="none" stroke="black" d="M324,-36.3C324,-44.1 324,-53.49 324,-62.17"/>
<polygon fill="black" stroke="black" points="324,-71.9 319.5,-61.9 324,-66.9 324,-61.9 324,-61.9 324,-61.9 324,-66.9 328.5,-61.9 324,-71.9 324,-71.9"/>
</g>
<!-- pman.controllers.search_controller -->
<g id="node4" class="node">
<title>pman.controllers.search_controller</title>
<polygon fill="none" stroke="black" points="206,-180 0,-180 0,-144 206,-144 206,-180"/>
<text text-anchor="middle" x="103" y="-158.3" font-family="Times,serif" font-size="14.00">pman.controllers.search_controller</text>
</g>
<!-- pman.cli&#45;&gt;pman.controllers.search_controller -->
<g id="edge2" class="edge">
<title>pman.cli&#45;&gt;pman.controllers.search_controller</title>
<path fill="none" stroke="black" d="M291.39,-101.33C258.86,-111.63 208.02,-127.74 167.34,-140.62"/>
<polygon fill="black" stroke="black" points="158.04,-143.57 166.21,-136.26 162.8,-142.06 167.57,-140.55 167.57,-140.55 167.57,-140.55 162.8,-142.06 168.93,-144.84 158.04,-143.57 158.04,-143.57"/>
</g>
<!-- pman.controllers.show_controller -->
<g id="node5" class="node">
<title>pman.controllers.show_controller</title>
<polygon fill="none" stroke="black" points="424,-180 224,-180 224,-144 424,-144 424,-180"/>
<text text-anchor="middle" x="324" y="-158.3" font-family="Times,serif" font-size="14.00">pman.controllers.show_controller</text>
</g>
<!-- pman.cli&#45;&gt;pman.controllers.show_controller -->
<g id="edge3" class="edge">
<title>pman.cli&#45;&gt;pman.controllers.show_controller</title>
<path fill="none" stroke="black" d="M324,-108.3C324,-116.1 324,-125.49 324,-134.17"/>
<polygon fill="black" stroke="black" points="324,-143.9 319.5,-133.9 324,-138.9 324,-133.9 324,-133.9 324,-133.9 324,-138.9 328.5,-133.9 324,-143.9 324,-143.9"/>
</g>
<!-- pman.core.exceptions -->
<g id="node7" class="node">
<title>pman.core.exceptions</title>
<polygon fill="none" stroke="black" points="578,-180 442,-180 442,-144 578,-144 578,-180"/>
<text text-anchor="middle" x="510" y="-158.3" font-family="Times,serif" font-size="14.00">pman.core.exceptions</text>
</g>
<!-- pman.cli&#45;&gt;pman.core.exceptions -->
<g id="edge4" class="edge">
<title>pman.cli&#45;&gt;pman.core.exceptions</title>
<path fill="none" stroke="black" d="M356.82,-103.35C383.78,-113.5 422.56,-128.09 454.35,-140.06"/>
<polygon fill="black" stroke="black" points="463.55,-143.52 452.6,-144.21 458.87,-141.76 454.19,-140 454.19,-140 454.19,-140 458.87,-141.76 455.77,-135.78 463.55,-143.52 463.55,-143.52"/>
</g>
<!-- pman.controllers -->
<g id="node3" class="node">
<title>pman.controllers</title>
<polygon fill="none" stroke="black" points="478.5,-36 369.5,-36 369.5,0 478.5,0 478.5,-36"/>
<text text-anchor="middle" x="424" y="-14.3" font-family="Times,serif" font-size="14.00">pman.controllers</text>
</g>
<!-- pman.core -->
<g id="node6" class="node">
<title>pman.core</title>
<polygon fill="none" stroke="black" points="571,-36 497,-36 497,0 571,0 571,-36"/>
<text text-anchor="middle" x="534" y="-14.3" font-family="Times,serif" font-size="14.00">pman.core</text>
</g>
<!-- pman.core.version -->
<g id="node8" class="node">
<title>pman.core.version</title>
<polygon fill="none" stroke="black" points="707,-36 589,-36 589,0 707,0 707,-36"/>
<text text-anchor="middle" x="648" y="-14.3" font-family="Times,serif" font-size="14.00">pman.core.version</text>
</g>
<!-- pman.onboarding -->
<g id="node9" class="node">
<title>pman.onboarding</title>
<polygon fill="none" stroke="black" points="838.5,-36 725.5,-36 725.5,0 838.5,0 838.5,-36"/>
<text text-anchor="middle" x="782" y="-14.3" font-family="Times,serif" font-size="14.00">pman.onboarding</text>
</g>
<!-- pman.output -->
<g id="node10" class="node">
<title>pman.output</title>
<polygon fill="none" stroke="black" points="686,-252 600,-252 600,-216 686,-216 686,-252"/>
<text text-anchor="middle" x="643" y="-230.3" font-family="Times,serif" font-size="14.00">pman.output</text>
</g>
<!-- pman.search -->
<g id="node11" class="node">
<title>pman.search</title>
<polygon fill="none" stroke="black" points="736,-108 650,-108 650,-72 736,-72 736,-108"/>
<text text-anchor="middle" x="693" y="-86.3" font-family="Times,serif" font-size="14.00">pman.search</text>
</g>
<!-- pman.settings -->
<g id="node12" class="node">
<title>pman.settings</title>
<polygon fill="none" stroke="black" points="726,-180 634,-180 634,-144 726,-144 726,-180"/>
<text text-anchor="middle" x="680" y="-158.3" font-family="Times,serif" font-size="14.00">pman.settings</text>
</g>
<!-- pman.search&#45;&gt;pman.settings -->
<g id="edge5" class="edge">
<title>pman.search&#45;&gt;pman.settings</title>
<path fill="none" stroke="black" d="M689.79,-108.3C688.34,-116.1 686.59,-125.49 684.98,-134.17"/>
<polygon fill="black" stroke="black" points="683.18,-143.9 680.58,-133.24 684.09,-138.98 685,-134.06 685,-134.06 685,-134.06 684.09,-138.98 689.43,-134.89 683.18,-143.9 683.18,-143.9"/>
</g>
<!-- pman.settings&#45;&gt;pman.output -->
<g id="edge6" class="edge">
<title>pman.settings&#45;&gt;pman.output</title>
<path fill="none" stroke="black" d="M670.85,-180.3C666.55,-188.44 661.34,-198.31 656.58,-207.3"/>
<polygon fill="black" stroke="black" points="652.04,-215.9 652.74,-204.95 654.38,-211.48 656.71,-207.05 656.71,-207.05 656.71,-207.05 654.38,-211.48 660.69,-209.16 652.04,-215.9 652.04,-215.9"/>
</g>
<!-- pman.show -->
<g id="node13" class="node">
<title>pman.show</title>
<polygon fill="none" stroke="black" points="632,-108 552,-108 552,-72 632,-72 632,-108"/>
<text text-anchor="middle" x="592" y="-86.3" font-family="Times,serif" font-size="14.00">pman.show</text>
</g>
<!-- pman.show&#45;&gt;pman.core.exceptions -->
<g id="edge7" class="edge">
<title>pman.show&#45;&gt;pman.core.exceptions</title>
<path fill="none" stroke="black" d="M571.73,-108.3C561.48,-117.05 548.88,-127.81 537.75,-137.31"/>
<polygon fill="black" stroke="black" points="530.32,-143.65 535,-133.74 534.12,-140.41 537.93,-137.16 537.93,-137.16 537.93,-137.16 534.12,-140.41 540.85,-140.58 530.32,-143.65 530.32,-143.65"/>
</g>
<!-- pman.show&#45;&gt;pman.output -->
<g id="edge8" class="edge">
<title>pman.show&#45;&gt;pman.output</title>
<path fill="none" stroke="black" d="M598.25,-108.41C607.06,-132.92 623.18,-177.81 633.48,-206.48"/>
<polygon fill="black" stroke="black" points="636.85,-215.89 629.24,-208 635.16,-211.18 633.47,-206.48 633.47,-206.48 633.47,-206.48 635.16,-211.18 637.71,-204.96 636.85,-215.89 636.85,-215.89"/>
</g>
<!-- pman.show&#45;&gt;pman.settings -->
<g id="edge9" class="edge">
<title>pman.show&#45;&gt;pman.settings</title>
<path fill="none" stroke="black" d="M613.75,-108.3C624.86,-117.14 638.53,-128.01 650.56,-137.59"/>
<polygon fill="black" stroke="black" points="658.19,-143.65 647.57,-140.95 654.28,-140.54 650.37,-137.43 650.37,-137.43 650.37,-137.43 654.28,-140.54 653.17,-133.91 658.19,-143.65 658.19,-143.65"/>
</g>
</g>
</svg>
