<?xml version="1.0" encoding="UTF-8" standalone="no"?>
<!DOCTYPE svg PUBLIC "-//W3C//DTD SVG 1.1//EN"
 "http://www.w3.org/Graphics/SVG/1.1/DTD/svg11.dtd">
<!-- Generated by graphviz version 2.43.0 (0)
 -->
<!-- Title: classes Pages: 1 -->
<svg width="2402pt" height="274pt"
 viewBox="0.00 0.00 2402.00 274.00" xmlns="http://www.w3.org/2000/svg" xmlns:xlink="http://www.w3.org/1999/xlink">
<g id="graph0" class="graph" transform="scale(1 1) rotate(0) translate(4 270)">
<title>classes</title>
<polygon fill="white" stroke="transparent" points="-4,4 -4,-270 2398,-270 2398,4 -4,4"/>
<!-- personal_man.cli.CLIApp -->
<g id="node1" class="node">
<title>personal_man.cli.CLIApp</title>
<polygon fill="none" stroke="black" points="0,-196.5 0,-265.5 116,-265.5 116,-196.5 0,-196.5"/>
<text text-anchor="middle" x="58" y="-250.3" font-family="Times,serif" font-size="14.00">CLIApp</text>
<polyline fill="none" stroke="black" points="0,-242.5 116,-242.5 "/>
<text text-anchor="start" x="8" y="-227.3" font-family="Times,serif" font-size="14.00">exit_code : int</text>
<polyline fill="none" stroke="black" points="0,-219.5 116,-219.5 "/>
<text text-anchor="middle" x="58" y="-204.3" font-family="Times,serif" font-size="14.00"> </text>
</g>
<!-- personal_man.cli.CLIAppTest -->
<g id="node2" class="node">
<title>personal_man.cli.CLIAppTest</title>
<polygon fill="none" stroke="black" points="8.5,-45 8.5,-115 107.5,-115 107.5,-45 8.5,-45"/>
<text text-anchor="middle" x="58" y="-99.8" font-family="Times,serif" font-size="14.00">CLIAppTest</text>
<polyline fill="none" stroke="black" points="8.5,-92 107.5,-92 "/>
<polyline fill="none" stroke="black" points="8.5,-68 107.5,-68 "/>
<text text-anchor="middle" x="58" y="-52.8" font-family="Times,serif" font-size="14.00"> </text>
</g>
<!-- personal_man.cli.CLIAppTest&#45;&gt;personal_man.cli.CLIApp -->
<g id="edge1" class="edge">
<title>personal_man.cli.CLIAppTest&#45;&gt;personal_man.cli.CLIApp</title>
<path fill="none" stroke="black" d="M58,-115.18C58,-136.34 58,-163.71 58,-186.42"/>
<polygon fill="none" stroke="black" points="54.5,-186.49 58,-196.49 61.5,-186.49 54.5,-186.49"/>
</g>
<!-- personal_man.core.exceptions.CLIError -->
<g id="node3" class="node">
<title>personal_man.core.exceptions.CLIError</title>
<polygon fill="none" stroke="black" points="126,-45 126,-115 206,-115 206,-45 126,-45"/>
<text text-anchor="middle" x="166" y="-99.8" font-family="Times,serif" font-size="14.00" fill="red">CLIError</text>
<polyline fill="none" stroke="black" points="126,-92 206,-92 "/>
<polyline fill="none" stroke="black" points="126,-68 206,-68 "/>
<text text-anchor="middle" x="166" y="-52.8" font-family="Times,serif" font-size="14.00" fill="red"> </text>
</g>
<!-- personal_man.settings.Settings.Config -->
<g id="node4" class="node">
<title>personal_man.settings.Settings.Config</title>
<polygon fill="none" stroke="black" points="224,-38 224,-122 386,-122 386,-38 224,-38"/>
<text text-anchor="middle" x="305" y="-106.8" font-family="Times,serif" font-size="14.00">Config</text>
<polyline fill="none" stroke="black" points="224,-99 386,-99 "/>
<text text-anchor="start" x="232" y="-83.8" font-family="Times,serif" font-size="14.00">case_sensitive : bool</text>
<text text-anchor="start" x="232" y="-68.8" font-family="Times,serif" font-size="14.00">env_prefix : str</text>
<polyline fill="none" stroke="black" points="224,-61 386,-61 "/>
<text text-anchor="middle" x="305" y="-45.8" font-family="Times,serif" font-size="14.00"> </text>
</g>
<!-- personal_man.output.CustomHeading -->
<g id="node5" class="node">
<title>personal_man.output.CustomHeading</title>
<polygon fill="none" stroke="black" points="404.5,-45 404.5,-115 535.5,-115 535.5,-45 404.5,-45"/>
<text text-anchor="middle" x="470" y="-99.8" font-family="Times,serif" font-size="14.00">CustomHeading</text>
<polyline fill="none" stroke="black" points="404.5,-92 535.5,-92 "/>
<polyline fill="none" stroke="black" points="404.5,-68 535.5,-68 "/>
<text text-anchor="middle" x="470" y="-52.8" font-family="Times,serif" font-size="14.00"> </text>
</g>
<!-- personal_man.output.CustomMarkdown -->
<g id="node6" class="node">
<title>personal_man.output.CustomMarkdown</title>
<polygon fill="none" stroke="black" points="553.5,-45 553.5,-115 700.5,-115 700.5,-45 553.5,-45"/>
<text text-anchor="middle" x="627" y="-99.8" font-family="Times,serif" font-size="14.00">CustomMarkdown</text>
<polyline fill="none" stroke="black" points="553.5,-92 700.5,-92 "/>
<polyline fill="none" stroke="black" points="553.5,-68 700.5,-68 "/>
<text text-anchor="middle" x="627" y="-52.8" font-family="Times,serif" font-size="14.00"> </text>
</g>
<!-- personal_man.cli.CLIApp.Meta -->
<g id="node7" class="node">
<title>personal_man.cli.CLIApp.Meta</title>
<polygon fill="none" stroke="black" points="719,-15.5 719,-144.5 883,-144.5 883,-15.5 719,-15.5"/>
<text text-anchor="middle" x="801" y="-129.3" font-family="Times,serif" font-size="14.00">Meta</text>
<polyline fill="none" stroke="black" points="719,-121.5 883,-121.5 "/>
<text text-anchor="start" x="727" y="-106.3" font-family="Times,serif" font-size="14.00">config_defaults : dict</text>
<text text-anchor="start" x="727" y="-91.3" font-family="Times,serif" font-size="14.00">exit_on_close : bool</text>
<text text-anchor="start" x="727" y="-76.3" font-family="Times,serif" font-size="14.00">handlers : list</text>
<text text-anchor="start" x="727" y="-61.3" font-family="Times,serif" font-size="14.00">hooks : list</text>
<text text-anchor="start" x="727" y="-46.3" font-family="Times,serif" font-size="14.00">label : str</text>
<polyline fill="none" stroke="black" points="719,-38.5 883,-38.5 "/>
<text text-anchor="middle" x="801" y="-23.3" font-family="Times,serif" font-size="14.00"> </text>
</g>
<!-- personal_man.cli.CLIAppTest.Meta -->
<g id="node8" class="node">
<title>personal_man.cli.CLIAppTest.Meta</title>
<polygon fill="none" stroke="black" points="901.5,-45.5 901.5,-114.5 986.5,-114.5 986.5,-45.5 901.5,-45.5"/>
<text text-anchor="middle" x="944" y="-99.3" font-family="Times,serif" font-size="14.00">Meta</text>
<polyline fill="none" stroke="black" points="901.5,-91.5 986.5,-91.5 "/>
<text text-anchor="start" x="909.5" y="-76.3" font-family="Times,serif" font-size="14.00">label : str</text>
<polyline fill="none" stroke="black" points="901.5,-68.5 986.5,-68.5 "/>
<text text-anchor="middle" x="944" y="-53.3" font-family="Times,serif" font-size="14.00"> </text>
</g>
<!-- personal_man.controllers.show_controller.ShowController.Meta -->
<g id="node9" class="node">
<title>personal_man.controllers.show_controller.ShowController.Meta</title>
<polygon fill="none" stroke="black" points="1004.5,-45.5 1004.5,-114.5 1089.5,-114.5 1089.5,-45.5 1004.5,-45.5"/>
<text text-anchor="middle" x="1047" y="-99.3" font-family="Times,serif" font-size="14.00">Meta</text>
<polyline fill="none" stroke="black" points="1004.5,-91.5 1089.5,-91.5 "/>
<text text-anchor="start" x="1012.5" y="-76.3" font-family="Times,serif" font-size="14.00">label : str</text>
<polyline fill="none" stroke="black" points="1004.5,-68.5 1089.5,-68.5 "/>
<text text-anchor="middle" x="1047" y="-53.3" font-family="Times,serif" font-size="14.00"> </text>
</g>
<!-- personal_man.controllers.search_controller.SearchController.Meta -->
<g id="node10" class="node">
<title>personal_man.controllers.search_controller.SearchController.Meta</title>
<polygon fill="none" stroke="black" points="1107.5,-45.5 1107.5,-114.5 1192.5,-114.5 1192.5,-45.5 1107.5,-45.5"/>
<text text-anchor="middle" x="1150" y="-99.3" font-family="Times,serif" font-size="14.00">Meta</text>
<polyline fill="none" stroke="black" points="1107.5,-91.5 1192.5,-91.5 "/>
<text text-anchor="start" x="1115.5" y="-76.3" font-family="Times,serif" font-size="14.00">label : str</text>
<polyline fill="none" stroke="black" points="1107.5,-68.5 1192.5,-68.5 "/>
<text text-anchor="middle" x="1150" y="-53.3" font-family="Times,serif" font-size="14.00"> </text>
</g>
<!-- personal_man.core.exceptions.NoManpageMatch -->
<g id="node11" class="node">
<title>personal_man.core.exceptions.NoManpageMatch</title>
<polygon fill="none" stroke="black" points="1211,-45 1211,-115 1359,-115 1359,-45 1211,-45"/>
<text text-anchor="middle" x="1285" y="-99.8" font-family="Times,serif" font-size="14.00" fill="red">NoManpageMatch</text>
<polyline fill="none" stroke="black" points="1211,-92 1359,-92 "/>
<polyline fill="none" stroke="black" points="1211,-68 1359,-68 "/>
<text text-anchor="middle" x="1285" y="-52.8" font-family="Times,serif" font-size="14.00" fill="red"> </text>
</g>
<!-- personal_man.output.Output -->
<g id="node12" class="node">
<title>personal_man.output.Output</title>
<polygon fill="none" stroke="black" points="1377.5,-0.5 1377.5,-159.5 1932.5,-159.5 1932.5,-0.5 1377.5,-0.5"/>
<text text-anchor="middle" x="1655" y="-144.3" font-family="Times,serif" font-size="14.00">Output</text>
<polyline fill="none" stroke="black" points="1377.5,-136.5 1932.5,-136.5 "/>
<text text-anchor="start" x="1385.5" y="-121.3" font-family="Times,serif" font-size="14.00">console : Console</text>
<polyline fill="none" stroke="black" points="1377.5,-113.5 1932.5,-113.5 "/>
<text text-anchor="start" x="1385.5" y="-98.3" font-family="Times,serif" font-size="14.00">ask(question: str, choices: list[str]): str</text>
<text text-anchor="start" x="1385.5" y="-83.3" font-family="Times,serif" font-size="14.00">ask_file(question: str, base_dir: Path, files: list[Path]): Path</text>
<text text-anchor="start" x="1385.5" y="-68.3" font-family="Times,serif" font-size="14.00">ask_rich(question: str, choices: list[str]): str</text>
<text text-anchor="start" x="1385.5" y="-53.3" font-family="Times,serif" font-size="14.00">write(msg: str, style: str): None</text>
<text text-anchor="start" x="1385.5" y="-38.3" font-family="Times,serif" font-size="14.00">write_md(path_md: Path): None</text>
<text text-anchor="start" x="1385.5" y="-23.3" font-family="Times,serif" font-size="14.00">write_new_line(): None</text>
<text text-anchor="start" x="1385.5" y="-8.3" font-family="Times,serif" font-size="14.00">write_table(columns: list[_CELL_TYPE], rows: list[list[_CELL_TYPE]]): None</text>
</g>
<!-- personal_man.controllers.search_controller.SearchController -->
<g id="node13" class="node">
<title>personal_man.controllers.search_controller.SearchController</title>
<polygon fill="none" stroke="black" points="1950.5,-45 1950.5,-115 2089.5,-115 2089.5,-45 1950.5,-45"/>
<text text-anchor="middle" x="2020" y="-99.8" font-family="Times,serif" font-size="14.00">SearchController</text>
<polyline fill="none" stroke="black" points="1950.5,-92 2089.5,-92 "/>
<polyline fill="none" stroke="black" points="1950.5,-68 2089.5,-68 "/>
<text text-anchor="start" x="1958.5" y="-52.8" font-family="Times,serif" font-size="14.00">search(): None</text>
</g>
<!-- personal_man.settings.Settings -->
<g id="node14" class="node">
<title>personal_man.settings.Settings</title>
<polygon fill="none" stroke="black" points="2108,-45.5 2108,-114.5 2248,-114.5 2248,-45.5 2108,-45.5"/>
<text text-anchor="middle" x="2178" y="-99.3" font-family="Times,serif" font-size="14.00">Settings</text>
<polyline fill="none" stroke="black" points="2108,-91.5 2248,-91.5 "/>
<text text-anchor="start" x="2116" y="-76.3" font-family="Times,serif" font-size="14.00">DOC_PATH : Path</text>
<polyline fill="none" stroke="black" points="2108,-68.5 2248,-68.5 "/>
<text text-anchor="middle" x="2178" y="-53.3" font-family="Times,serif" font-size="14.00"> </text>
</g>
<!-- personal_man.controllers.show_controller.ShowController -->
<g id="node15" class="node">
<title>personal_man.controllers.show_controller.ShowController</title>
<polygon fill="none" stroke="black" points="2266,-45 2266,-115 2394,-115 2394,-45 2266,-45"/>
<text text-anchor="middle" x="2330" y="-99.8" font-family="Times,serif" font-size="14.00">ShowController</text>
<polyline fill="none" stroke="black" points="2266,-92 2394,-92 "/>
<polyline fill="none" stroke="black" points="2266,-68 2394,-68 "/>
<text text-anchor="start" x="2274" y="-52.8" font-family="Times,serif" font-size="14.00">show(): None</text>
</g>
</g>
</svg>
