<?xml version="1.0" encoding="UTF-8" standalone="no"?>
<!DOCTYPE svg PUBLIC "-//W3C//DTD SVG 1.1//EN"
 "http://www.w3.org/Graphics/SVG/1.1/DTD/svg11.dtd">
<!-- Generated by graphviz version 2.43.0 (0)
 -->
<!-- Title: packages Pages: 1 -->
<svg width="1365pt" height="260pt"
 viewBox="0.00 0.00 1365.00 260.00" xmlns="http://www.w3.org/2000/svg" xmlns:xlink="http://www.w3.org/1999/xlink">
<g id="graph0" class="graph" transform="scale(1 1) rotate(0) translate(4 256)">
<title>packages</title>
<polygon fill="white" stroke="transparent" points="-4,4 -4,-256 1361,-256 1361,4 -4,4"/>
<!-- personal_man -->
<g id="node1" class="node">
<title>personal_man</title>
<polygon fill="none" stroke="black" points="746,-36 630,-36 630,0 746,0 746,-36"/>
<text text-anchor="middle" x="688" y="-14.3" font-family="Times,serif" font-size="14.00">personal_man</text>
</g>
<!-- personal_man.cli -->
<g id="node2" class="node">
<title>personal_man.cli</title>
<polygon fill="none" stroke="black" points="756.5,-108 619.5,-108 619.5,-72 756.5,-72 756.5,-108"/>
<text text-anchor="middle" x="688" y="-86.3" font-family="Times,serif" font-size="14.00">personal_man.cli</text>
</g>
<!-- personal_man&#45;&gt;personal_man.cli -->
<g id="edge1" class="edge">
<title>personal_man&#45;&gt;personal_man.cli</title>
<path fill="none" stroke="black" d="M688,-36.3C688,-44.02 688,-53.29 688,-61.89"/>
<polygon fill="black" stroke="black" points="688,-71.9 683.5,-61.9 688,-66.9 688,-61.9 688,-61.9 688,-61.9 688,-66.9 692.5,-61.9 688,-71.9 688,-71.9"/>
</g>
<!-- personal_man.controllers.search_controller -->
<g id="node4" class="node">
<title>personal_man.controllers.search_controller</title>
<polygon fill="none" stroke="black" points="326,-180 0,-180 0,-144 326,-144 326,-180"/>
<text text-anchor="middle" x="163" y="-158.3" font-family="Times,serif" font-size="14.00">personal_man.controllers.search_controller</text>
</g>
<!-- personal_man.cli&#45;&gt;personal_man.controllers.search_controller -->
<g id="edge2" class="edge">
<title>personal_man.cli&#45;&gt;personal_man.controllers.search_controller</title>
<path fill="none" stroke="black" d="M619.37,-100.15C538.8,-110.89 403.2,-128.97 300.69,-142.64"/>
<polygon fill="black" stroke="black" points="290.56,-143.99 299.88,-138.21 295.52,-143.33 300.48,-142.67 300.48,-142.67 300.48,-142.67 295.52,-143.33 301.07,-147.13 290.56,-143.99 290.56,-143.99"/>
</g>
<!-- personal_man.controllers.show_controller -->
<g id="node5" class="node">
<title>personal_man.controllers.show_controller</title>
<polygon fill="none" stroke="black" points="659.5,-180 344.5,-180 344.5,-144 659.5,-144 659.5,-180"/>
<text text-anchor="middle" x="502" y="-158.3" font-family="Times,serif" font-size="14.00">personal_man.controllers.show_controller</text>
</g>
<!-- personal_man.cli&#45;&gt;personal_man.controllers.show_controller -->
<g id="edge3" class="edge">
<title>personal_man.cli&#45;&gt;personal_man.controllers.show_controller</title>
<path fill="none" stroke="black" d="M642.5,-108.12C616.62,-117.86 584.03,-130.13 556.76,-140.39"/>
<polygon fill="black" stroke="black" points="547.35,-143.93 555.13,-136.2 552.03,-142.17 556.71,-140.41 556.71,-140.41 556.71,-140.41 552.03,-142.17 558.3,-144.62 547.35,-143.93 547.35,-143.93"/>
</g>
<!-- personal_man.core.exceptions -->
<g id="node7" class="node">
<title>personal_man.core.exceptions</title>
<polygon fill="none" stroke="black" points="948,-180 716,-180 716,-144 948,-144 948,-180"/>
<text text-anchor="middle" x="832" y="-158.3" font-family="Times,serif" font-size="14.00">personal_man.core.exceptions</text>
</g>
<!-- personal_man.cli&#45;&gt;personal_man.core.exceptions -->
<g id="edge4" class="edge">
<title>personal_man.cli&#45;&gt;personal_man.core.exceptions</title>
<path fill="none" stroke="black" d="M723.23,-108.12C742.58,-117.53 766.77,-129.29 787.43,-139.33"/>
<polygon fill="black" stroke="black" points="796.64,-143.81 785.68,-143.49 792.14,-141.62 787.64,-139.44 787.64,-139.44 787.64,-139.44 792.14,-141.62 789.61,-135.39 796.64,-143.81 796.64,-143.81"/>
</g>
<!-- personal_man.output -->
<g id="node9" class="node">
<title>personal_man.output</title>
<polygon fill="none" stroke="black" points="1138.5,-252 971.5,-252 971.5,-216 1138.5,-216 1138.5,-252"/>
<text text-anchor="middle" x="1055" y="-230.3" font-family="Times,serif" font-size="14.00">personal_man.output</text>
</g>
<!-- personal_man.cli&#45;&gt;personal_man.output -->
<g id="edge5" class="edge">
<title>personal_man.cli&#45;&gt;personal_man.output</title>
<path fill="none" stroke="black" d="M686.37,-108.15C685.49,-128.38 687.45,-161.58 707,-180 742.74,-213.68 870.77,-225.96 961.13,-230.44"/>
<polygon fill="black" stroke="black" points="971.12,-230.91 960.92,-234.93 966.13,-230.67 961.13,-230.44 961.13,-230.44 961.13,-230.44 966.13,-230.67 961.34,-225.94 971.12,-230.91 971.12,-230.91"/>
</g>
<!-- personal_man.settings -->
<g id="node11" class="node">
<title>personal_man.settings</title>
<polygon fill="none" stroke="black" points="1144,-180 966,-180 966,-144 1144,-144 1144,-180"/>
<text text-anchor="middle" x="1055" y="-158.3" font-family="Times,serif" font-size="14.00">personal_man.settings</text>
</g>
<!-- personal_man.cli&#45;&gt;personal_man.settings -->
<g id="edge6" class="edge">
<title>personal_man.cli&#45;&gt;personal_man.settings</title>
<path fill="none" stroke="black" d="M756.6,-104.08C812.72,-114.79 892.85,-130.07 955.94,-142.11"/>
<polygon fill="black" stroke="black" points="965.91,-144.01 955.25,-146.55 961,-143.07 956.09,-142.13 956.09,-142.13 956.09,-142.13 961,-143.07 956.93,-137.71 965.91,-144.01 965.91,-144.01"/>
</g>
<!-- personal_man.controllers -->
<g id="node3" class="node">
<title>personal_man.controllers</title>
<polygon fill="none" stroke="black" points="961.5,-36 764.5,-36 764.5,0 961.5,0 961.5,-36"/>
<text text-anchor="middle" x="863" y="-14.3" font-family="Times,serif" font-size="14.00">personal_man.controllers</text>
</g>
<!-- personal_man.core -->
<g id="node6" class="node">
<title>personal_man.core</title>
<polygon fill="none" stroke="black" points="1130.5,-36 979.5,-36 979.5,0 1130.5,0 1130.5,-36"/>
<text text-anchor="middle" x="1055" y="-14.3" font-family="Times,serif" font-size="14.00">personal_man.core</text>
</g>
<!-- personal_man.core.version -->
<g id="node8" class="node">
<title>personal_man.core.version</title>
<polygon fill="none" stroke="black" points="1357,-36 1149,-36 1149,0 1357,0 1357,-36"/>
<text text-anchor="middle" x="1253" y="-14.3" font-family="Times,serif" font-size="14.00">personal_man.core.version</text>
</g>
<!-- personal_man.search -->
<g id="node10" class="node">
<title>personal_man.search</title>
<polygon fill="none" stroke="black" points="1228.5,-108 1061.5,-108 1061.5,-72 1228.5,-72 1228.5,-108"/>
<text text-anchor="middle" x="1145" y="-86.3" font-family="Times,serif" font-size="14.00">personal_man.search</text>
</g>
<!-- personal_man.search&#45;&gt;personal_man.settings -->
<g id="edge7" class="edge">
<title>personal_man.search&#45;&gt;personal_man.settings</title>
<path fill="none" stroke="black" d="M1122.75,-108.3C1111.42,-117.12 1097.47,-127.97 1085.18,-137.53"/>
<polygon fill="black" stroke="black" points="1076.99,-143.9 1082.12,-134.2 1080.94,-140.83 1084.88,-137.76 1084.88,-137.76 1084.88,-137.76 1080.94,-140.83 1087.65,-141.31 1076.99,-143.9 1076.99,-143.9"/>
</g>
<!-- personal_man.settings&#45;&gt;personal_man.output -->
<g id="edge8" class="edge">
<title>personal_man.settings&#45;&gt;personal_man.output</title>
<path fill="none" stroke="black" d="M1055,-180.3C1055,-188.02 1055,-197.29 1055,-205.89"/>
<polygon fill="black" stroke="black" points="1055,-215.9 1050.5,-205.9 1055,-210.9 1055,-205.9 1055,-205.9 1055,-205.9 1055,-210.9 1059.5,-205.9 1055,-215.9 1055,-215.9"/>
</g>
<!-- personal_man.show -->
<g id="node12" class="node">
<title>personal_man.show</title>
<polygon fill="none" stroke="black" points="1043.5,-108 886.5,-108 886.5,-72 1043.5,-72 1043.5,-108"/>
<text text-anchor="middle" x="965" y="-86.3" font-family="Times,serif" font-size="14.00">personal_man.show</text>
</g>
<!-- personal_man.show&#45;&gt;personal_man.core.exceptions -->
<g id="edge9" class="edge">
<title>personal_man.show&#45;&gt;personal_man.core.exceptions</title>
<path fill="none" stroke="black" d="M932.46,-108.12C914.75,-117.45 892.65,-129.08 873.68,-139.06"/>
<polygon fill="black" stroke="black" points="864.66,-143.81 871.41,-135.17 869.09,-141.48 873.51,-139.15 873.51,-139.15 873.51,-139.15 869.09,-141.48 875.61,-143.13 864.66,-143.81 864.66,-143.81"/>
</g>
<!-- personal_man.show&#45;&gt;personal_man.output -->
<g id="edge10" class="edge">
<title>personal_man.show&#45;&gt;personal_man.output</title>
<path fill="none" stroke="black" d="M1041.67,-108.02C1090.48,-119.63 1145.85,-134.55 1153,-144 1162.66,-156.76 1161.19,-166.26 1153,-180 1145.04,-193.36 1132.41,-203.55 1118.84,-211.25"/>
<polygon fill="black" stroke="black" points="1109.82,-215.96 1116.6,-207.34 1114.25,-213.65 1118.68,-211.33 1118.68,-211.33 1118.68,-211.33 1114.25,-213.65 1120.77,-215.32 1109.82,-215.96 1109.82,-215.96"/>
</g>
<!-- personal_man.show&#45;&gt;personal_man.settings -->
<g id="edge11" class="edge">
<title>personal_man.show&#45;&gt;personal_man.settings</title>
<path fill="none" stroke="black" d="M987.25,-108.3C998.58,-117.12 1012.53,-127.97 1024.82,-137.53"/>
<polygon fill="black" stroke="black" points="1033.01,-143.9 1022.35,-141.31 1029.06,-140.83 1025.12,-137.76 1025.12,-137.76 1025.12,-137.76 1029.06,-140.83 1027.88,-134.2 1033.01,-143.9 1033.01,-143.9"/>
</g>
</g>
</svg>
