<?xml version="1.0" encoding="UTF-8" standalone="no"?>
<!DOCTYPE svg PUBLIC "-//W3C//DTD SVG 1.1//EN"
 "http://www.w3.org/Graphics/SVG/1.1/DTD/svg11.dtd">
<!-- Generated by graphviz version 7.0.4 (20221203.1631)
 -->
<!-- Title: packages Pages: 1 -->
<svg width="1092pt" height="260pt"
 viewBox="0.00 0.00 1092.00 260.00" xmlns="http://www.w3.org/2000/svg" xmlns:xlink="http://www.w3.org/1999/xlink">
<g id="graph0" class="graph" transform="scale(1 1) rotate(0) translate(4 256)">
<title>packages</title>
<polygon fill="white" stroke="none" points="-4,4 -4,-256 1088,-256 1088,4 -4,4"/>
<!-- personal_man -->
<g id="node1" class="node">
<title>personal_man</title>
<polygon fill="none" stroke="black" points="590.5,-36 497.5,-36 497.5,0 590.5,0 590.5,-36"/>
<text text-anchor="middle" x="544" y="-14.3" font-family="Times,serif" font-size="14.00">personal_man</text>
</g>
<!-- personal_man.cli -->
<g id="node2" class="node">
<title>personal_man.cli</title>
<polygon fill="none" stroke="black" points="599,-108 489,-108 489,-72 599,-72 599,-108"/>
<text text-anchor="middle" x="544" y="-86.3" font-family="Times,serif" font-size="14.00">personal_man.cli</text>
</g>
<!-- personal_man&#45;&gt;personal_man.cli -->
<g id="edge1" class="edge">
<title>personal_man&#45;&gt;personal_man.cli</title>
<path fill="none" stroke="black" d="M544,-36.3C544,-44.1 544,-53.49 544,-62.17"/>
<polygon fill="black" stroke="black" points="544,-71.9 539.5,-61.9 544,-66.9 544,-61.9 544,-61.9 544,-61.9 544,-66.9 548.5,-61.9 544,-71.9 544,-71.9"/>
</g>
<!-- personal_man.controllers.search_controller -->
<g id="node4" class="node">
<title>personal_man.controllers.search_controller</title>
<polygon fill="none" stroke="black" points="252,-180 0,-180 0,-144 252,-144 252,-180"/>
<text text-anchor="middle" x="126" y="-158.3" font-family="Times,serif" font-size="14.00">personal_man.controllers.search_controller</text>
</g>
<!-- personal_man.cli&#45;&gt;personal_man.controllers.search_controller -->
<g id="edge2" class="edge">
<title>personal_man.cli&#45;&gt;personal_man.controllers.search_controller</title>
<path fill="none" stroke="black" d="M488.92,-100.22C425.87,-110.78 320.86,-128.37 239.98,-141.91"/>
<polygon fill="black" stroke="black" points="230.24,-143.54 239.36,-137.45 235.17,-142.72 240.1,-141.89 240.1,-141.89 240.1,-141.89 235.17,-142.72 240.85,-146.33 230.24,-143.54 230.24,-143.54"/>
</g>
<!-- personal_man.controllers.show_controller -->
<g id="node5" class="node">
<title>personal_man.controllers.show_controller</title>
<polygon fill="none" stroke="black" points="516,-180 270,-180 270,-144 516,-144 516,-180"/>
<text text-anchor="middle" x="393" y="-158.3" font-family="Times,serif" font-size="14.00">personal_man.controllers.show_controller</text>
</g>
<!-- personal_man.cli&#45;&gt;personal_man.controllers.show_controller -->
<g id="edge3" class="edge">
<title>personal_man.cli&#45;&gt;personal_man.controllers.show_controller</title>
<path fill="none" stroke="black" d="M506.29,-108.48C486.03,-117.87 460.89,-129.53 439.44,-139.47"/>
<polygon fill="black" stroke="black" points="430.49,-143.62 437.67,-135.33 435.03,-141.52 439.57,-139.41 439.57,-139.41 439.57,-139.41 435.03,-141.52 441.46,-143.5 430.49,-143.62 430.49,-143.62"/>
</g>
<!-- personal_man.core.exceptions -->
<g id="node7" class="node">
<title>personal_man.core.exceptions</title>
<polygon fill="none" stroke="black" points="754,-180 572,-180 572,-144 754,-144 754,-180"/>
<text text-anchor="middle" x="663" y="-158.3" font-family="Times,serif" font-size="14.00">personal_man.core.exceptions</text>
</g>
<!-- personal_man.cli&#45;&gt;personal_man.core.exceptions -->
<g id="edge4" class="edge">
<title>personal_man.cli&#45;&gt;personal_man.core.exceptions</title>
<path fill="none" stroke="black" d="M573.72,-108.48C589.32,-117.66 608.59,-128.99 625.23,-138.78"/>
<polygon fill="black" stroke="black" points="633.66,-143.74 622.76,-142.55 629.35,-141.2 625.04,-138.67 625.04,-138.67 625.04,-138.67 629.35,-141.2 627.32,-134.79 633.66,-143.74 633.66,-143.74"/>
</g>
<!-- personal_man.output -->
<g id="node9" class="node">
<title>personal_man.output</title>
<polygon fill="none" stroke="black" points="906.5,-252 775.5,-252 775.5,-216 906.5,-216 906.5,-252"/>
<text text-anchor="middle" x="841" y="-230.3" font-family="Times,serif" font-size="14.00">personal_man.output</text>
</g>
<!-- personal_man.cli&#45;&gt;personal_man.output -->
<g id="edge5" class="edge">
<title>personal_man.cli&#45;&gt;personal_man.output</title>
<path fill="none" stroke="black" d="M542.48,-108.38C541.75,-128.52 543.91,-161.33 563,-180 591.19,-207.58 693.36,-221.41 765.63,-227.89"/>
<polygon fill="black" stroke="black" points="775.17,-228.72 764.82,-232.34 770.19,-228.29 765.21,-227.86 765.21,-227.86 765.21,-227.86 770.19,-228.29 765.6,-223.37 775.17,-228.72 775.17,-228.72"/>
</g>
<!-- personal_man.settings -->
<g id="node11" class="node">
<title>personal_man.settings</title>
<polygon fill="none" stroke="black" points="910,-180 772,-180 772,-144 910,-144 910,-180"/>
<text text-anchor="middle" x="841" y="-158.3" font-family="Times,serif" font-size="14.00">personal_man.settings</text>
</g>
<!-- personal_man.cli&#45;&gt;personal_man.settings -->
<g id="edge6" class="edge">
<title>personal_man.cli&#45;&gt;personal_man.settings</title>
<path fill="none" stroke="black" d="M599.17,-104C645.04,-114.82 710.91,-130.34 762.32,-142.46"/>
<polygon fill="black" stroke="black" points="771.74,-144.68 760.98,-146.76 766.87,-143.53 762.01,-142.38 762.01,-142.38 762.01,-142.38 766.87,-143.53 763.04,-138 771.74,-144.68 771.74,-144.68"/>
</g>
<!-- personal_man.controllers -->
<g id="node3" class="node">
<title>personal_man.controllers</title>
<polygon fill="none" stroke="black" points="763.5,-36 608.5,-36 608.5,0 763.5,0 763.5,-36"/>
<text text-anchor="middle" x="686" y="-14.3" font-family="Times,serif" font-size="14.00">personal_man.controllers</text>
</g>
<!-- personal_man.core -->
<g id="node6" class="node">
<title>personal_man.core</title>
<polygon fill="none" stroke="black" points="902,-36 782,-36 782,0 902,0 902,-36"/>
<text text-anchor="middle" x="842" y="-14.3" font-family="Times,serif" font-size="14.00">personal_man.core</text>
</g>
<!-- personal_man.core.version -->
<g id="node8" class="node">
<title>personal_man.core.version</title>
<polygon fill="none" stroke="black" points="1084,-36 920,-36 920,0 1084,0 1084,-36"/>
<text text-anchor="middle" x="1002" y="-14.3" font-family="Times,serif" font-size="14.00">personal_man.core.version</text>
</g>
<!-- personal_man.search -->
<g id="node10" class="node">
<title>personal_man.search</title>
<polygon fill="none" stroke="black" points="979.5,-108 848.5,-108 848.5,-72 979.5,-72 979.5,-108"/>
<text text-anchor="middle" x="914" y="-86.3" font-family="Times,serif" font-size="14.00">personal_man.search</text>
</g>
<!-- personal_man.search&#45;&gt;personal_man.settings -->
<g id="edge7" class="edge">
<title>personal_man.search&#45;&gt;personal_man.settings</title>
<path fill="none" stroke="black" d="M895.96,-108.3C887.01,-116.89 876.05,-127.39 866.28,-136.76"/>
<polygon fill="black" stroke="black" points="859.09,-143.65 863.19,-133.48 862.7,-140.19 866.31,-136.73 866.31,-136.73 866.31,-136.73 862.7,-140.19 869.42,-139.98 859.09,-143.65 859.09,-143.65"/>
</g>
<!-- personal_man.settings&#45;&gt;personal_man.output -->
<g id="edge8" class="edge">
<title>personal_man.settings&#45;&gt;personal_man.output</title>
<path fill="none" stroke="black" d="M841,-180.3C841,-188.1 841,-197.49 841,-206.17"/>
<polygon fill="black" stroke="black" points="841,-215.9 836.5,-205.9 841,-210.9 841,-205.9 841,-205.9 841,-205.9 841,-210.9 845.5,-205.9 841,-215.9 841,-215.9"/>
</g>
<!-- personal_man.show -->
<g id="node12" class="node">
<title>personal_man.show</title>
<polygon fill="none" stroke="black" points="830.5,-108 705.5,-108 705.5,-72 830.5,-72 830.5,-108"/>
<text text-anchor="middle" x="768" y="-86.3" font-family="Times,serif" font-size="14.00">personal_man.show</text>
</g>
<!-- personal_man.show&#45;&gt;personal_man.core.exceptions -->
<g id="edge9" class="edge">
<title>personal_man.show&#45;&gt;personal_man.core.exceptions</title>
<path fill="none" stroke="black" d="M741.77,-108.48C728.27,-117.49 711.64,-128.58 697.14,-138.24"/>
<polygon fill="black" stroke="black" points="688.89,-143.74 694.72,-134.45 693.05,-140.97 697.21,-138.19 697.21,-138.19 697.21,-138.19 693.05,-140.97 699.71,-141.94 688.89,-143.74 688.89,-143.74"/>
</g>
<!-- personal_man.show&#45;&gt;personal_man.output -->
<g id="edge10" class="edge">
<title>personal_man.show&#45;&gt;personal_man.output</title>
<path fill="none" stroke="black" d="M827.77,-108.38C867.46,-120.53 913.3,-135.95 919,-144 928.25,-157.05 926.49,-165.86 919,-180 912.4,-192.46 901.41,-202.54 889.74,-210.42"/>
<polygon fill="black" stroke="black" points="881.59,-215.53 887.67,-206.41 885.83,-212.87 890.06,-210.22 890.06,-210.22 890.06,-210.22 885.83,-212.87 892.45,-214.03 881.59,-215.53 881.59,-215.53"/>
</g>
<!-- personal_man.show&#45;&gt;personal_man.settings -->
<g id="edge11" class="edge">
<title>personal_man.show&#45;&gt;personal_man.settings</title>
<path fill="none" stroke="black" d="M786.04,-108.3C794.99,-116.89 805.95,-127.39 815.72,-136.76"/>
<polygon fill="black" stroke="black" points="822.91,-143.65 812.58,-139.98 819.3,-140.19 815.69,-136.73 815.69,-136.73 815.69,-136.73 819.3,-140.19 818.81,-133.48 822.91,-143.65 822.91,-143.65"/>
</g>
</g>
</svg>
